<?xml version="1.0" encoding="UTF-8"?> <svg xmlns="http://www.w3.org/2000/svg" viewBox="0 0 319.09 340.31"><defs><style>.cls-1,.cls-19{fill:#d4ecff;}.cls-2{fill:#721bd5;}.cls-3{fill:#b45ef4;}.cls-4{fill:#8a2ae3;}.cls-5{fill:#95d359;}.cls-6{fill:#c13d1a;}.cls-7{fill:#db5126;}.cls-8{fill:#ef602e;}.cls-9{fill:#ef5555;}.cls-10{fill:#f27777;}.cls-11{fill:#e8a200;}.cls-12{fill:#f9bf30;}.cls-13{fill:#fdd762;}.cls-14{fill:#5793ce;}.cls-15{fill:#396caa;}.cls-16{fill:#fff;}.cls-17{fill:#fafdff;}.cls-18{fill:#173d7a;}.cls-19{opacity:0.4;}.cls-20{fill:#274f89;}.cls-21{fill:#b34040;}</style></defs><g id="Layer_2" data-name="Layer 2"><g id="Ñëîé_1" data-name="Ñëîé 1"><path class="cls-1" d="M20.74,225.44c-4.74,2.74-12.44,2.74-17.18,0s-4.75-7.18,0-9.92,12.44-2.74,17.18,0S25.49,222.7,20.74,225.44Z"></path><polygon class="cls-1" points="319.09 229.31 306.85 222.25 294.61 229.31 306.85 236.38 319.09 229.31"></polygon><polygon class="cls-1" points="306.85 222.25 294.61 215.18 282.36 222.25 294.61 229.31 306.85 222.25"></polygon><polygon class="cls-2" points="308.69 216.24 308.69 195.07 319.09 189.07 319.09 210.24 308.69 216.24"></polygon><polygon class="cls-3" points="308.69 195.07 298.29 189.07 298.29 210.24 308.69 216.24 308.69 195.07"></polygon><polygon class="cls-4" points="319.09 189.07 308.69 183.06 298.29 189.07 308.69 195.07 319.09 189.07"></polygon><polygon class="cls-5" points="319.09 218.24 308.69 212.24 308.69 216.24 319.09 222.25 319.09 218.24"></polygon><polygon class="cls-6" points="298.29 222.25 298.29 190.22 308.69 184.22 308.69 216.24 298.29 222.25"></polygon><polygon class="cls-7" points="298.29 190.22 287.89 184.22 287.89 216.24 298.29 222.25 298.29 190.22"></polygon><polygon class="cls-8" points="308.69 184.22 298.29 178.22 287.89 184.22 298.29 190.22 308.69 184.22"></polygon><polygon class="cls-9" points="298.29 222.25 298.29 190.22 308.69 184.22 308.69 216.24 298.29 222.25"></polygon><polygon class="cls-9" points="298.29 190.22 287.89 184.22 287.89 216.24 298.29 222.25 298.29 190.22"></polygon><polygon class="cls-10" points="308.69 184.22 298.29 178.22 287.89 184.22 298.29 190.22 308.69 184.22"></polygon><polygon class="cls-11" points="308.69 228.25 308.69 210.24 319.09 204.23 319.09 222.25 308.69 228.25"></polygon><polygon class="cls-12" points="308.69 210.24 298.29 204.23 298.29 222.25 308.69 228.25 308.69 210.24"></polygon><polygon class="cls-13" points="319.09 204.23 308.69 198.23 298.29 204.23 308.69 210.24 319.09 204.23"></polygon><path class="cls-14" d="M212.42,112.52a.84.84,0,0,1-.84-.84V77.07a.85.85,0,0,1,1.69,0v34.61A.84.84,0,0,1,212.42,112.52Z"></path><rect class="cls-14" x="209.42" y="74.89" width="6.01" height="12.98"></rect><path class="cls-14" d="M214.55,89.1a4.74,4.74,0,0,1-4.25,0,1.3,1.3,0,0,1,0-2.46,4.68,4.68,0,0,1,4.25,0A1.3,1.3,0,0,1,214.55,89.1Z"></path><rect class="cls-14" x="207.55" y="56.81" width="9.74" height="20.35"></rect><path class="cls-15" d="M209.42,77v4.39a7.83,7.83,0,0,0,6,0V77A7.74,7.74,0,0,0,209.42,77Z"></path><path class="cls-14" d="M215.87,79.15a7.61,7.61,0,0,1-6.89,0c-1.9-1.1-1.9-2.88,0-4a7.61,7.61,0,0,1,6.89,0C217.77,76.27,217.77,78.05,215.87,79.15Z"></path><path class="cls-14" d="M246.18,131.52a.84.84,0,0,1-.84-.84V96.06a.84.84,0,0,1,1.68,0v34.62A.85.85,0,0,1,246.18,131.52Z"></path><rect class="cls-14" x="243.17" y="93.89" width="6.01" height="12.98"></rect><path class="cls-14" d="M248.31,108.09a4.7,4.7,0,0,1-4.26,0,1.3,1.3,0,0,1,0-2.46,4.77,4.77,0,0,1,4.26,0A1.3,1.3,0,0,1,248.31,108.09Z"></path><rect class="cls-14" x="241.31" y="75.8" width="9.74" height="20.35"></rect><path class="cls-15" d="M243.17,96v4.39a7.76,7.76,0,0,0,6,0V96A7.76,7.76,0,0,0,243.17,96Z"></path><path class="cls-14" d="M249.62,98.14a7.61,7.61,0,0,1-6.89,0c-1.9-1.1-1.9-2.88,0-4a7.61,7.61,0,0,1,6.89,0C251.53,95.26,251.53,97,249.62,98.14Z"></path><polygon class="cls-14" points="278.99 109.57 292.06 101.88 279.61 86.34 276.34 91.69 278.99 109.57"></polygon><path class="cls-14" d="M184.12,24.34l20.85-12s-.78,12-.78,12-12,3.71-12,3.71Z"></path><path class="cls-14" d="M282.62,70.52a13,13,0,0,0-4.51-1.67c-2.1-11-9.79-22.79-19-28.08a18.68,18.68,0,0,0-7.75-2.63C250.14,24.75,240.83,9.53,229.52,3c-5.9-3.41-11.26-3.81-15.22-1.72h0l-.19.11-.3.17L201.52,8.81,205.6,12c-3.67,1.6-6,5.72-6,11.8,0,11.21,7.88,24.84,17.59,30.45L282.62,101c7.29,4.21,13.21.8,13.21-7.62S289.91,74.73,282.62,70.52Z"></path><path class="cls-14" d="M200.22,18.9,228.44,2.41C223-.45,218-.68,214.3,1.28h0l-.19.11-.3.17L201.52,8.81,205.6,12C203,13.16,201.14,15.51,200.22,18.9Z"></path><path class="cls-14" d="M252.34,67.41l20.59-12.09c-3.53-6.11-8.39-11.44-13.78-14.55-.71-.41-1.41-.77-2.11-1.09L230.85,55Z"></path><path class="cls-1" d="M207.32,10.16l9.17,5.3,16.81-9.9A34.9,34.9,0,0,0,229.52,3,23.55,23.55,0,0,0,223.65.54Z"></path><path class="cls-1" d="M270.66,51.77l-16.43,9.68,5.71,6.38L274.86,59A48,48,0,0,0,270.66,51.77Z"></path><path class="cls-1" d="M269.71,78.12a13.17,13.17,0,0,0-4.51-1.67c-2.1-11-9.79-22.78-19-28.08a18.5,18.5,0,0,0-7.75-2.62c-1.26-13.39-10.57-28.61-21.88-35.14-12.16-7-22-1.33-22,12.71,0,.48,0,1,0,1.44-8.89-4.13-15.84.52-15.84,11.06,0,11.21,7.87,24.84,17.58,30.45l73.34,42.34c7.3,4.21,13.21.8,13.21-7.62S277,82.33,269.71,78.12Z"></path><path class="cls-16" d="M194.63,24.76c0-.48,0-1,0-1.44,0,0,0,0,0-.06-4.92-1.91-9.14-1.08-11.79,2C185.69,22.88,189.88,22.55,194.63,24.76Z"></path><path class="cls-16" d="M270.79,77.08a13.15,13.15,0,0,0-4.51-1.68c-2.11-11.05-9.8-22.78-19-28.07a18.57,18.57,0,0,0-7.76-2.63C238.31,31.31,229,16.09,217.69,9.56c-7.58-4.37-14.26-3.81-18.22.63,4-3.45,10.21-3.58,17.14.42,11.31,6.53,20.62,21.75,21.88,35.14a18.5,18.5,0,0,1,7.75,2.62c9.17,5.3,16.86,17,19,28.08a13.17,13.17,0,0,1,4.51,1.67c7.3,4.21,13.21,14.45,13.21,22.87a10.84,10.84,0,0,1-2.11,7c2-1.52,3.18-4.28,3.18-8.07C284,91.52,278.08,81.29,270.79,77.08Z"></path><path class="cls-15" d="M193.08,28.1l5.51,2.56-.28-6.07c0-.43,0-.85,0-1.27,0-5.42,1.64-9.35,4.61-11.06s7.19-1.17,11.88,1.54c10.09,5.83,18.9,20,20,32.29l.28,3.1,3.1.23a14.91,14.91,0,0,1,6.2,2.15c8,4.62,15.24,15.38,17.18,25.57l.49,2.55,2.56.4a9.56,9.56,0,0,1,3.24,1.22C274,84.87,279.23,93.88,279.23,101c0,2.66-.74,4.61-2,5.36s-3.35.4-5.65-.93L198.22,63.08c-8.54-4.93-15.74-17.41-15.74-27.26,0-3.87,1.14-6.82,3.12-8.09a5.39,5.39,0,0,1,2.93-.78A11.13,11.13,0,0,1,193.08,28.1Z"></path><polygon class="cls-14" points="229.68 74.07 231.62 73.1 229.71 71.65 229.68 74.07"></polygon><polygon class="cls-14" points="223.87 47.93 225.75 46.98 225.78 47.97 223.87 47.93"></polygon><polygon class="cls-14" points="235.2 67.96 237.16 66.97 233.39 63.38 235.2 67.96"></polygon><path class="cls-14" d="M231.05,73l-9.16-5.4a2,2,0,0,1-.84-1.54l0-10.6,10.85,6.38,0,10.61C231.89,73.06,231.52,73.31,231.05,73Z"></path><path class="cls-14" d="M225.73,47l-9.89,6.36c-.42.27-.08,1.28.55,1.65l10.11,6,10.1,6c.64.37,1-.23.57-1l-9.83-18C226.92,47.17,226.16,46.72,225.73,47Z"></path><path class="cls-1" d="M229.09,74l-9.16-5.39a1.93,1.93,0,0,1-.84-1.54l0-10.61L230,62.87l0,10.61C229.93,74.05,229.55,74.3,229.09,74Z"></path><path class="cls-1" d="M223.77,48l-9.9,6.37c-.42.27-.08,1.28.56,1.65l10.1,6,10.11,6c.64.38,1-.22.56-1l-9.82-18C225,48.16,224.19,47.71,223.77,48Z"></path><path class="cls-1" d="M211.5,85.62c0,.6-.42.84-.93.54a2.06,2.06,0,0,1-.94-1.62c0-.6.42-.84.94-.54A2.08,2.08,0,0,1,211.5,85.62Z"></path><path class="cls-1" d="M245.34,104.89c0,.6-.42.84-.94.54a2.06,2.06,0,0,1-.94-1.62c0-.6.42-.84.94-.54A2.06,2.06,0,0,1,245.34,104.89Z"></path><path class="cls-1" d="M184.88,235.75,142,211.31c-1.57-.9-1.37-2.48.44-3.53l24.66-14.23a6.79,6.79,0,0,1,6.11-.26l42.86,24.44c1.57.91,1.38,2.49-.43,3.53L191,235.5A6.75,6.75,0,0,1,184.88,235.75Z"></path><path class="cls-15" d="M219.92,209.5h0V109.44L180.14,99l-7.33-4.23a7.3,7.3,0,0,0-6.56.27l-6.84,4H138.2l6.28,96.59a1.89,1.89,0,0,0,1.13,1.76l39.69,29.95a7.26,7.26,0,0,0,6.56-.27l26.46-15.27A2.62,2.62,0,0,0,219.92,209.5Z"></path><path class="cls-1" d="M169.77,94.15a7.62,7.62,0,0,0-3.52.92l-6.84,4H138.2V199.34a1.91,1.91,0,0,0,1.12,1.76l46,26.21a6,6,0,0,0,3,.66l.47-101Z"></path><path class="cls-14" d="M185.73,227.52a7.45,7.45,0,0,0,5.24-.06V125.82h-5.24Z"></path><path class="cls-1" d="M185.3,127l-46-26.22c-1.68-1-1.47-2.66.47-3.79l26.46-15.27a7.3,7.3,0,0,1,6.56-.27l46,26.22c1.68,1,1.47,2.66-.47,3.78l-26.46,15.28A7.3,7.3,0,0,1,185.3,127Z"></path><path class="cls-17" d="M218.32,109.61l-26.46,15.28a7.3,7.3,0,0,1-6.56.27l-46-26.22a2.57,2.57,0,0,1-.84-.74,1.76,1.76,0,0,0,.84,2.6l46,26.22a7.3,7.3,0,0,0,6.56-.27l26.46-15.28c1.51-.87,2-2.08,1.31-3A3.56,3.56,0,0,1,218.32,109.61Z"></path><path class="cls-18" d="M186.6,116.39,156,98.65c-.79-.45-.69-1.25.22-1.77l12.38-7.15a3.44,3.44,0,0,1,3.07-.13l30.61,17.75c.79.45.69,1.25-.22,1.77l-12.38,7.15A3.41,3.41,0,0,1,186.6,116.39Z"></path><path class="cls-1" d="M170.08,99.45l-1.78-1c-.11-.06-.09-.17,0-.24l1.72-1a.48.48,0,0,1,.42,0l1.78,1c.1.06.09.17,0,.24l-1.71,1A.48.48,0,0,1,170.08,99.45Z"></path><path class="cls-1" d="M176,102.85l-1.77-1c-.11-.06-.1-.17,0-.25l1.71-1a.47.47,0,0,1,.43,0l1.77,1c.11.07.1.18,0,.25l-1.71,1A.47.47,0,0,1,176,102.85Z"></path><path class="cls-1" d="M181.93,106.26l-1.77-1c-.11-.07-.1-.17,0-.25l1.71-1a.45.45,0,0,1,.42,0l1.78,1c.11.06.09.17,0,.25l-1.72,1A.45.45,0,0,1,181.93,106.26Z"></path><path class="cls-1" d="M187.86,109.67l-1.78-1c-.11-.07-.09-.18,0-.25l1.72-1a.48.48,0,0,1,.42,0l1.77,1c.11.06.1.17,0,.24l-1.71,1A.48.48,0,0,1,187.86,109.67Z"></path><path class="cls-14" d="M156,98.65l0,0c.06,0,.11-.09.18-.13l12.38-7.14a3.41,3.41,0,0,1,3.07-.13L202.24,109c.72-.52.76-1.22,0-1.64L171.66,89.6a3.44,3.44,0,0,0-3.07.13l-12.38,7.15C155.3,97.4,155.2,98.2,156,98.65Z"></path><path class="cls-18" d="M197,146.84l17.4-10a4.25,4.25,0,0,0,1.78-3.39v-6.22c0-1.31-.8-1.91-1.78-1.34l-17.4,10a4.25,4.25,0,0,0-1.77,3.39v6.22C195.26,146.81,196.05,147.41,197,146.84Z"></path><path class="cls-16" d="M215.3,125.74a1.75,1.75,0,0,1,.44,1.29v6.23a4.26,4.26,0,0,1-1.77,3.39l-17.41,10a1.3,1.3,0,0,1-.86.19,1.05,1.05,0,0,0,1.33,0l17.4-10a4.25,4.25,0,0,0,1.78-3.39v-6.22C216.21,126.38,215.84,125.83,215.3,125.74Z"></path><path class="cls-15" d="M202.26,140.08l1.6-.92a.93.93,0,0,0,.39-.74v-1.7c0-.29-.18-.42-.39-.29l-1.6.92a.92.92,0,0,0-.38.74v1.7C201.88,140.08,202.05,140.21,202.26,140.08Z"></path><path class="cls-16" d="M207.6,137l1.6-.92a.93.93,0,0,0,.39-.74v-1.7c0-.29-.18-.42-.39-.3l-1.6.92a1,1,0,0,0-.38.74v1.71C207.22,137,207.39,137.12,207.6,137Z"></path><path class="cls-18" d="M197,191.82l17.4-10a4.27,4.27,0,0,0,1.78-3.39v-6.23c0-1.3-.8-1.9-1.78-1.34l-17.4,10a4.23,4.23,0,0,0-1.77,3.39v6.22C195.26,191.79,196.05,192.39,197,191.82Z"></path><path class="cls-16" d="M215.3,170.72a1.72,1.72,0,0,1,.44,1.29v6.22a4.23,4.23,0,0,1-1.77,3.39l-17.41,10a1.3,1.3,0,0,1-.86.19,1.07,1.07,0,0,0,1.33,0l17.4-10a4.27,4.27,0,0,0,1.78-3.39v-6.23C216.21,171.36,215.84,170.81,215.3,170.72Z"></path><path class="cls-15" d="M202.26,185.06l1.6-.92a.94.94,0,0,0,.39-.74v-1.71c0-.28-.18-.41-.39-.29l-1.6.92a1,1,0,0,0-.38.74v1.71C201.88,185.05,202.05,185.18,202.26,185.06Z"></path><path class="cls-16" d="M207.6,182l1.6-.92a1,1,0,0,0,.39-.74v-1.71c0-.28-.18-.41-.39-.29l-1.6.92a1,1,0,0,0-.38.74v1.71C207.22,182,207.39,182.1,207.6,182Z"></path><path class="cls-18" d="M197,214.31l17.4-10a4.27,4.27,0,0,0,1.78-3.39v-6.23c0-1.3-.8-1.9-1.78-1.34l-17.4,10a4.23,4.23,0,0,0-1.77,3.39V213C195.26,214.28,196.05,214.88,197,214.31Z"></path><path class="cls-16" d="M215.3,193.2a1.76,1.76,0,0,1,.44,1.3v6.22a4.23,4.23,0,0,1-1.77,3.39l-17.41,10a1.23,1.23,0,0,1-.86.18,1.05,1.05,0,0,0,1.33.05l17.4-10a4.27,4.27,0,0,0,1.78-3.39v-6.23C216.21,193.85,215.84,193.3,215.3,193.2Z"></path><path class="cls-15" d="M202.26,207.55l1.6-.92a1,1,0,0,0,.39-.74v-1.71c0-.28-.18-.41-.39-.29l-1.6.92a1,1,0,0,0-.38.74v1.71C201.88,207.54,202.05,207.67,202.26,207.55Z"></path><path class="cls-16" d="M207.6,204.47l1.6-.93a.92.92,0,0,0,.39-.73V201.1c0-.28-.18-.41-.39-.29l-1.6.92a.92.92,0,0,0-.38.74v1.7C207.22,204.46,207.39,204.59,207.6,204.47Z"></path><path class="cls-18" d="M197,169.33l17.4-10a4.25,4.25,0,0,0,1.78-3.39v-6.22c0-1.31-.8-1.91-1.78-1.35l-17.4,10a4.25,4.25,0,0,0-1.77,3.39V168C195.26,169.3,196.05,169.9,197,169.33Z"></path><path class="cls-16" d="M215.3,148.23a1.72,1.72,0,0,1,.44,1.29v6.23a4.23,4.23,0,0,1-1.77,3.38l-17.41,10a1.3,1.3,0,0,1-.86.19,1.07,1.07,0,0,0,1.33,0l17.4-10a4.25,4.25,0,0,0,1.78-3.39v-6.22C216.21,148.87,215.84,148.32,215.3,148.23Z"></path><path class="cls-15" d="M202.26,162.57l1.6-.92a.93.93,0,0,0,.39-.74v-1.7c0-.29-.18-.42-.39-.3l-1.6.93a.92.92,0,0,0-.38.73v1.71C201.88,162.56,202.05,162.7,202.26,162.57Z"></path><path class="cls-16" d="M207.6,159.49l1.6-.92a1,1,0,0,0,.39-.74v-1.71c0-.28-.18-.41-.39-.29l-1.6.92a1,1,0,0,0-.38.74v1.71C207.22,159.48,207.39,159.61,207.6,159.49Z"></path><path class="cls-14" d="M182,140.47,141.8,117.29a3.9,3.9,0,0,1-1.63-3.11v-7.66c0-1.19.73-1.75,1.63-1.23L182,128.48a3.9,3.9,0,0,1,1.63,3.11v7.65C183.58,140.44,182.85,141,182,140.47Z"></path><path class="cls-19" d="M180.8,137.79,143,115.94a2,2,0,0,1-.82-1.58V108.6c0-.61.37-.89.82-.62l37.85,21.85a2,2,0,0,1,.83,1.58v5.75C181.63,137.77,181.26,138.05,180.8,137.79Z"></path><path class="cls-1" d="M150.84,117.58l-5.65-3.26a1.93,1.93,0,0,1-.8-1.53h0c0-.59.36-.86.8-.61l5.65,3.26a1.93,1.93,0,0,1,.8,1.53h0C151.64,117.56,151.28,117.84,150.84,117.58Z"></path><path class="cls-18" d="M155.65,119.29c0,.59-.41.83-.92.53a2,2,0,0,1-.93-1.6c0-.59.42-.83.93-.53A2,2,0,0,1,155.65,119.29Z"></path><path class="cls-18" d="M158.92,121.18c0,.59-.42.83-.93.53a2,2,0,0,1-.92-1.6c0-.59.41-.83.92-.54A2.07,2.07,0,0,1,158.92,121.18Z"></path><path class="cls-1" d="M162.18,123.06c0,.59-.41.83-.92.54a2.07,2.07,0,0,1-.93-1.61c0-.59.42-.83.93-.53A2,2,0,0,1,162.18,123.06Z"></path><path class="cls-18" d="M165.45,125c0,.59-.41.83-.92.53a2,2,0,0,1-.93-1.6c0-.59.41-.83.93-.54A2.06,2.06,0,0,1,165.45,125Z"></path><path class="cls-18" d="M179.21,134.58l-1.9-1.1a1.21,1.21,0,0,1-.52-1v-2c0-.38.23-.55.52-.39l1.9,1.1a1.23,1.23,0,0,1,.51,1v2C179.72,134.57,179.49,134.75,179.21,134.58Z"></path><path class="cls-14" d="M182,154,141.8,130.79a3.9,3.9,0,0,1-1.63-3.11V120c0-1.2.73-1.75,1.63-1.23L182,142a3.9,3.9,0,0,1,1.63,3.11v7.66C183.58,153.94,182.85,154.49,182,154Z"></path><path class="cls-19" d="M180.8,151.29,143,129.44a2,2,0,0,1-.82-1.58V122.1c0-.6.37-.88.82-.62l37.85,21.85a2,2,0,0,1,.83,1.58v5.76C181.63,151.27,181.26,151.55,180.8,151.29Z"></path><path class="cls-1" d="M150.84,131.08l-5.65-3.26a1.91,1.91,0,0,1-.8-1.53h0c0-.59.36-.86.8-.61l5.65,3.26a2,2,0,0,1,.8,1.54h0C151.64,131.07,151.28,131.34,150.84,131.08Z"></path><path class="cls-16" d="M155.65,132.79c0,.59-.41.83-.92.54a2.07,2.07,0,0,1-.93-1.61c0-.59.42-.83.93-.53A2,2,0,0,1,155.65,132.79Z"></path><path class="cls-18" d="M158.92,134.68c0,.59-.42.83-.93.53a2,2,0,0,1-.92-1.6c0-.59.41-.83.92-.54A2.07,2.07,0,0,1,158.92,134.68Z"></path><path class="cls-1" d="M162.18,136.56c0,.59-.41.83-.92.54a2.07,2.07,0,0,1-.93-1.61c0-.59.42-.83.93-.53A2,2,0,0,1,162.18,136.56Z"></path><path class="cls-18" d="M165.45,138.45c0,.59-.41.83-.92.53a2,2,0,0,1-.93-1.6c0-.59.41-.83.93-.53A2,2,0,0,1,165.45,138.45Z"></path><path class="cls-18" d="M179.21,148.08l-1.9-1.09a1.24,1.24,0,0,1-.52-1v-2c0-.38.23-.55.52-.39l1.9,1.1a1.23,1.23,0,0,1,.51,1v2C179.72,148.07,179.49,148.25,179.21,148.08Z"></path><path class="cls-14" d="M182,167.48,141.8,144.29a3.88,3.88,0,0,1-1.63-3.11v-7.65c0-1.2.73-1.75,1.63-1.23L182,155.48a3.9,3.9,0,0,1,1.63,3.11v7.66C183.58,167.45,182.85,168,182,167.48Z"></path><path class="cls-19" d="M180.8,164.79,143,142.94a2,2,0,0,1-.82-1.58v-5.75c0-.61.37-.89.82-.63l37.85,21.85a2,2,0,0,1,.83,1.58v5.76C181.63,164.78,181.26,165.06,180.8,164.79Z"></path><path class="cls-1" d="M150.84,144.58l-5.65-3.26a1.91,1.91,0,0,1-.8-1.53h0c0-.59.36-.86.8-.6l5.65,3.26a1.91,1.91,0,0,1,.8,1.53h0C151.64,144.57,151.28,144.84,150.84,144.58Z"></path><path class="cls-16" d="M155.65,146.29c0,.59-.41.83-.92.54a2.06,2.06,0,0,1-.93-1.6c0-.6.42-.83.93-.54A2,2,0,0,1,155.65,146.29Z"></path><path class="cls-18" d="M158.92,148.18c0,.59-.42.83-.93.53a2,2,0,0,1-.92-1.6c0-.59.41-.83.92-.53A2,2,0,0,1,158.92,148.18Z"></path><path class="cls-1" d="M162.18,150.07c0,.59-.41.83-.92.53a2.06,2.06,0,0,1-.93-1.6c0-.59.42-.83.93-.54A2.06,2.06,0,0,1,162.18,150.07Z"></path><path class="cls-18" d="M165.45,152c0,.59-.41.83-.92.54a2,2,0,0,1-.93-1.61c0-.59.41-.83.93-.53A2,2,0,0,1,165.45,152Z"></path><path class="cls-18" d="M179.21,161.59l-1.9-1.1a1.24,1.24,0,0,1-.52-1v-2c0-.38.23-.55.52-.39l1.9,1.1a1.26,1.26,0,0,1,.51,1v2C179.72,161.58,179.49,161.75,179.21,161.59Z"></path><path class="cls-14" d="M182,181,141.8,157.8a3.9,3.9,0,0,1-1.63-3.11V147c0-1.2.73-1.75,1.63-1.23L182,169a3.9,3.9,0,0,1,1.63,3.11v7.66C183.58,181,182.85,181.5,182,181Z"></path><path class="cls-19" d="M180.8,178.29,143,156.44a2,2,0,0,1-.82-1.58v-5.75c0-.61.37-.89.82-.63l37.85,21.86a2,2,0,0,1,.83,1.57v5.76C181.63,178.28,181.26,178.56,180.8,178.29Z"></path><path class="cls-1" d="M150.84,158.09l-5.65-3.26a2,2,0,0,1-.8-1.54h0c0-.59.36-.86.8-.6l5.65,3.26a1.91,1.91,0,0,1,.8,1.53h0C151.64,158.07,151.28,158.34,150.84,158.09Z"></path><path class="cls-18" d="M155.65,159.8c0,.59-.41.83-.92.53a2,2,0,0,1-.93-1.6c0-.59.42-.83.93-.54A2.06,2.06,0,0,1,155.65,159.8Z"></path><path class="cls-18" d="M158.92,161.68c0,.59-.42.83-.93.54a2.06,2.06,0,0,1-.92-1.61c0-.59.41-.83.92-.53A2,2,0,0,1,158.92,161.68Z"></path><path class="cls-1" d="M162.18,163.57c0,.59-.41.83-.92.53a2,2,0,0,1-.93-1.6c0-.59.42-.83.93-.54A2.06,2.06,0,0,1,162.18,163.57Z"></path><path class="cls-18" d="M165.45,165.45c0,.59-.41.83-.92.54a2,2,0,0,1-.93-1.61c0-.59.41-.83.93-.53A2,2,0,0,1,165.45,165.45Z"></path><path class="cls-1" d="M179.21,175.09l-1.9-1.1a1.21,1.21,0,0,1-.52-1v-2c0-.37.23-.55.52-.38l1.9,1.09a1.26,1.26,0,0,1,.51,1v2C179.72,175.08,179.49,175.25,179.21,175.09Z"></path><path class="cls-14" d="M182,194.48,141.8,171.3a3.9,3.9,0,0,1-1.63-3.11v-7.66c0-1.2.73-1.75,1.63-1.23L182,182.49a3.88,3.88,0,0,1,1.63,3.1v7.66C183.58,194.45,182.85,195,182,194.48Z"></path><path class="cls-19" d="M180.8,191.8,143,169.94a2,2,0,0,1-.82-1.57v-5.76c0-.61.37-.89.82-.62l37.85,21.85a2,2,0,0,1,.83,1.58v5.75C181.63,191.78,181.26,192.06,180.8,191.8Z"></path><path class="cls-1" d="M150.84,171.59l-5.65-3.26a1.93,1.93,0,0,1-.8-1.53h0c0-.59.36-.87.8-.61l5.65,3.26a1.93,1.93,0,0,1,.8,1.53h0C151.64,171.57,151.28,171.84,150.84,171.59Z"></path><path class="cls-18" d="M155.65,173.3c0,.59-.41.83-.92.53a2,2,0,0,1-.93-1.6c0-.59.42-.83.93-.53A2,2,0,0,1,155.65,173.3Z"></path><path class="cls-16" d="M158.92,175.18c0,.59-.42.83-.93.54a2,2,0,0,1-.92-1.6c0-.6.41-.83.92-.54A2.06,2.06,0,0,1,158.92,175.18Z"></path><path class="cls-1" d="M162.18,177.07c0,.59-.41.83-.92.53a2,2,0,0,1-.93-1.6c0-.59.42-.83.93-.53A2,2,0,0,1,162.18,177.07Z"></path><path class="cls-16" d="M165.45,179c0,.59-.41.83-.92.53a2,2,0,0,1-.93-1.6c0-.59.41-.83.93-.54A2.06,2.06,0,0,1,165.45,179Z"></path><path class="cls-1" d="M179.21,188.59l-1.9-1.1a1.21,1.21,0,0,1-.52-1v-2c0-.38.23-.56.52-.39l1.9,1.1a1.23,1.23,0,0,1,.51,1v2C179.72,188.58,179.49,188.76,179.21,188.59Z"></path><path class="cls-14" d="M182,208,141.8,184.8a3.9,3.9,0,0,1-1.63-3.11V174c0-1.19.73-1.74,1.63-1.23L182,196a3.9,3.9,0,0,1,1.63,3.11v7.65C183.58,208,182.85,208.5,182,208Z"></path><path class="cls-19" d="M180.8,205.3,143,183.45a2,2,0,0,1-.82-1.58v-5.76c0-.61.37-.88.82-.62l37.85,21.85a2,2,0,0,1,.83,1.58v5.76C181.63,205.28,181.26,205.56,180.8,205.3Z"></path><path class="cls-1" d="M150.84,185.09l-5.65-3.26a1.93,1.93,0,0,1-.8-1.53h0c0-.59.36-.86.8-.61l5.65,3.26a1.93,1.93,0,0,1,.8,1.53h0C151.64,185.08,151.28,185.35,150.84,185.09Z"></path><path class="cls-18" d="M155.65,186.8c0,.59-.41.83-.92.54a2.07,2.07,0,0,1-.93-1.61c0-.59.42-.83.93-.53A2,2,0,0,1,155.65,186.8Z"></path><path class="cls-18" d="M158.92,188.69c0,.59-.42.83-.93.53a2,2,0,0,1-.92-1.6c0-.59.41-.83.92-.54A2.07,2.07,0,0,1,158.92,188.69Z"></path><path class="cls-1" d="M162.18,190.57c0,.59-.41.83-.92.54a2.07,2.07,0,0,1-.93-1.61c0-.59.42-.83.93-.53A2,2,0,0,1,162.18,190.57Z"></path><path class="cls-18" d="M165.45,192.46c0,.59-.41.83-.92.53a2,2,0,0,1-.93-1.6c0-.59.41-.83.93-.54A2.06,2.06,0,0,1,165.45,192.46Z"></path><path class="cls-18" d="M179.21,202.09l-1.9-1.09a1.24,1.24,0,0,1-.52-1v-2c0-.38.23-.55.52-.39l1.9,1.1a1.23,1.23,0,0,1,.51,1v2C179.72,202.08,179.49,202.26,179.21,202.09Z"></path><path class="cls-14" d="M182,221.49,141.8,198.3a3.9,3.9,0,0,1-1.63-3.11v-7.65c0-1.2.73-1.75,1.63-1.23L182,209.49a3.9,3.9,0,0,1,1.63,3.11v7.66C183.58,221.45,182.85,222,182,221.49Z"></path><path class="cls-19" d="M180.8,218.8,143,197a2,2,0,0,1-.82-1.58v-5.75c0-.61.37-.89.82-.63l37.85,21.85a2,2,0,0,1,.83,1.58v5.76C181.63,218.79,181.26,219.06,180.8,218.8Z"></path><path class="cls-1" d="M150.84,198.59l-5.65-3.26a1.91,1.91,0,0,1-.8-1.53h0c0-.59.36-.86.8-.61l5.65,3.26a2,2,0,0,1,.8,1.54h0C151.64,198.58,151.28,198.85,150.84,198.59Z"></path><path class="cls-16" d="M176.79,212.76c0,1.12-.78,1.57-1.75,1a3.88,3.88,0,0,1-1.75-3c0-1.11.79-1.56,1.75-1A3.87,3.87,0,0,1,176.79,212.76Z"></path><path class="cls-18" d="M155.65,200.47c0,.59-.41.83-.92.54a2.07,2.07,0,0,1-.93-1.61c0-.59.42-.83.93-.53A2,2,0,0,1,155.65,200.47Z"></path><path class="cls-1" d="M158.92,202.36c0,.59-.42.83-.93.53a2,2,0,0,1-.92-1.6c0-.59.41-.83.92-.54A2.07,2.07,0,0,1,158.92,202.36Z"></path><path class="cls-18" d="M162.18,204.24c0,.59-.41.83-.92.54a2.07,2.07,0,0,1-.93-1.61c0-.59.42-.83.93-.53A2,2,0,0,1,162.18,204.24Z"></path><path class="cls-1" d="M241.84,268.4,199,244c-1.57-.9-1.37-2.48.44-3.53l24.66-14.24a6.84,6.84,0,0,1,6.12-.25l42.86,24.44c1.57.91,1.37,2.49-.44,3.53L248,268.15A6.81,6.81,0,0,1,241.84,268.4Z"></path><path class="cls-15" d="M276.88,242.15h0V142.09L237.1,131.68l-7.33-4.23a7.3,7.3,0,0,0-6.56.27l-6.83,3.95H195.16l6.28,96.59a1.92,1.92,0,0,0,1.13,1.76L242.27,260a7.3,7.3,0,0,0,6.56-.27l26.45-15.27A2.62,2.62,0,0,0,276.88,242.15Z"></path><path class="cls-1" d="M226.73,126.8a7.62,7.62,0,0,0-3.52.92l-6.83,3.95H195.16V232a1.91,1.91,0,0,0,1.13,1.76l46,26.21a5.84,5.84,0,0,0,3,.65l.48-101Z"></path><path class="cls-14" d="M242.69,260.17a7.45,7.45,0,0,0,5.24-.06V158.46h-5.24Z"></path><path class="cls-1" d="M242.27,159.67l-46-26.22c-1.68-1-1.47-2.67.47-3.79l26.45-15.27a7.3,7.3,0,0,1,6.56-.27l46,26.22c1.69,1,1.47,2.66-.47,3.78L248.83,159.4A7.3,7.3,0,0,1,242.27,159.67Z"></path><path class="cls-17" d="M275.28,142.26l-26.45,15.28a7.3,7.3,0,0,1-6.56.27l-46-26.22a2.58,2.58,0,0,1-.84-.74,1.75,1.75,0,0,0,.84,2.6l46,26.22a7.3,7.3,0,0,0,6.56-.27l26.45-15.28c1.51-.87,2-2.08,1.31-3A3.64,3.64,0,0,1,275.28,142.26Z"></path><path class="cls-18" d="M243.57,149,213,131.3c-.79-.46-.69-1.25.22-1.77l12.38-7.15a3.41,3.41,0,0,1,3.07-.13L259.24,140c.78.45.69,1.24-.22,1.77l-12.38,7.15A3.41,3.41,0,0,1,243.57,149Z"></path><path class="cls-1" d="M227,132.1l-1.77-1c-.11-.06-.1-.17,0-.24l1.71-1a.47.47,0,0,1,.43,0l1.77,1c.11.07.09.18,0,.25l-1.71,1A.5.5,0,0,1,227,132.1Z"></path><path class="cls-1" d="M233,135.5l-1.78-1c-.11-.06-.09-.17,0-.25l1.72-1a.45.45,0,0,1,.42,0l1.78,1c.1.06.09.17,0,.25l-1.71,1A.45.45,0,0,1,233,135.5Z"></path><path class="cls-1" d="M238.89,138.91l-1.77-1c-.11-.07-.1-.18,0-.25l1.71-1a.5.5,0,0,1,.43,0l1.77,1c.11.06.1.17,0,.24l-1.71,1A.47.47,0,0,1,238.89,138.91Z"></path><path class="cls-1" d="M244.82,142.32l-1.77-1c-.11-.06-.1-.17,0-.24l1.71-1a.48.48,0,0,1,.42,0l1.78,1c.11.06.09.17,0,.24l-1.72,1A.48.48,0,0,1,244.82,142.32Z"></path><path class="cls-14" d="M213,131.3l0,0,.19-.13,12.38-7.14a3.38,3.38,0,0,1,3.07-.13l30.57,17.72c.73-.52.76-1.22,0-1.64l-30.61-17.75a3.41,3.41,0,0,0-3.07.13l-12.38,7.15C212.27,130.05,212.17,130.84,213,131.3Z"></path><path class="cls-18" d="M254,179.49l17.41-10a4.25,4.25,0,0,0,1.77-3.39v-6.22c0-1.31-.79-1.91-1.77-1.35l-17.41,10a4.25,4.25,0,0,0-1.77,3.39v6.22C252.22,179.46,253,180.06,254,179.49Z"></path><path class="cls-16" d="M272.26,158.39a1.75,1.75,0,0,1,.44,1.29v6.23a4.23,4.23,0,0,1-1.77,3.38l-17.4,10a1.34,1.34,0,0,1-.87.19,1.07,1.07,0,0,0,1.33,0l17.41-10a4.25,4.25,0,0,0,1.77-3.39v-6.22C273.17,159,272.8,158.48,272.26,158.39Z"></path><path class="cls-15" d="M259.23,172.73l1.59-.92a.9.9,0,0,0,.39-.74v-1.7c0-.29-.17-.42-.39-.3l-1.59.93a.9.9,0,0,0-.39.73v1.71C258.84,172.72,259,172.86,259.23,172.73Z"></path><path class="cls-16" d="M264.57,169.65l1.59-.92a.93.93,0,0,0,.39-.74v-1.71c0-.28-.17-.41-.39-.29l-1.59.92a.93.93,0,0,0-.39.74v1.71C264.18,169.64,264.35,169.77,264.57,169.65Z"></path><path class="cls-18" d="M254,224.47l17.41-10a4.26,4.26,0,0,0,1.77-3.39v-6.23c0-1.3-.79-1.9-1.77-1.34l-17.41,10a4.23,4.23,0,0,0-1.77,3.39v6.22C252.22,224.44,253,225,254,224.47Z"></path><path class="cls-16" d="M272.26,203.36a1.76,1.76,0,0,1,.44,1.3v6.22a4.23,4.23,0,0,1-1.77,3.39l-17.4,10a1.27,1.27,0,0,1-.87.18,1.05,1.05,0,0,0,1.33.05l17.41-10a4.26,4.26,0,0,0,1.77-3.39v-6.23C273.17,204,272.8,203.46,272.26,203.36Z"></path><path class="cls-15" d="M259.23,217.71l1.59-.92a.93.93,0,0,0,.39-.74v-1.71c0-.28-.17-.41-.39-.29l-1.59.92a.93.93,0,0,0-.39.74v1.71C258.84,217.7,259,217.83,259.23,217.71Z"></path><path class="cls-16" d="M264.57,214.63l1.59-.93a.9.9,0,0,0,.39-.73v-1.71c0-.28-.17-.41-.39-.29l-1.59.92a.9.9,0,0,0-.39.74v1.7C264.18,214.62,264.35,214.75,264.57,214.63Z"></path><path class="cls-18" d="M254,247l17.41-10a4.23,4.23,0,0,0,1.77-3.38v-6.23c0-1.3-.79-1.91-1.77-1.34L254,236a4.23,4.23,0,0,0-1.77,3.38v6.23C252.22,246.92,253,247.52,254,247Z"></path><path class="cls-16" d="M272.26,225.85a1.76,1.76,0,0,1,.44,1.3v6.22a4.25,4.25,0,0,1-1.77,3.39l-17.4,10a1.27,1.27,0,0,1-.87.18A1.05,1.05,0,0,0,254,247l17.41-10a4.23,4.23,0,0,0,1.77-3.38v-6.23C273.17,226.49,272.8,225.94,272.26,225.85Z"></path><path class="cls-15" d="M259.23,240.2l1.59-.92a.93.93,0,0,0,.39-.74v-1.71c0-.28-.17-.41-.39-.29l-1.59.92a.92.92,0,0,0-.39.74v1.71C258.84,240.19,259,240.32,259.23,240.2Z"></path><path class="cls-16" d="M264.57,237.12l1.59-.93a.9.9,0,0,0,.39-.74v-1.7c0-.29-.17-.42-.39-.29l-1.59.92a.9.9,0,0,0-.39.74v1.7C264.18,237.11,264.35,237.24,264.57,237.12Z"></path><path class="cls-18" d="M254,202l17.41-10a4.26,4.26,0,0,0,1.77-3.39V182.4c0-1.3-.79-1.9-1.77-1.34L254,191a4.23,4.23,0,0,0-1.77,3.39v6.22C252.22,202,253,202.55,254,202Z"></path><path class="cls-16" d="M272.26,180.88a1.72,1.72,0,0,1,.44,1.29v6.22a4.23,4.23,0,0,1-1.77,3.39l-17.4,10a1.34,1.34,0,0,1-.87.19,1.07,1.07,0,0,0,1.33,0l17.41-10a4.26,4.26,0,0,0,1.77-3.39V182.4C273.17,181.52,272.8,181,272.26,180.88Z"></path><path class="cls-15" d="M259.23,195.22l1.59-.92a.92.92,0,0,0,.39-.74v-1.71c0-.28-.17-.41-.39-.29l-1.59.92a.93.93,0,0,0-.39.74v1.71C258.84,195.21,259,195.34,259.23,195.22Z"></path><path class="cls-16" d="M264.57,192.14l1.59-.92a.93.93,0,0,0,.39-.74v-1.71c0-.28-.17-.41-.39-.29l-1.59.92a.93.93,0,0,0-.39.74v1.71C264.18,192.13,264.35,192.26,264.57,192.14Z"></path><path class="cls-14" d="M238.92,173.12l-40.16-23.18a3.89,3.89,0,0,1-1.62-3.11v-7.66c0-1.2.72-1.75,1.62-1.23l40.16,23.19a3.87,3.87,0,0,1,1.62,3.1v7.66C240.54,173.09,239.82,173.64,238.92,173.12Z"></path><path class="cls-19" d="M237.76,170.44l-37.84-21.86a2,2,0,0,1-.83-1.57v-5.76c0-.61.37-.89.83-.62l37.84,21.85a2,2,0,0,1,.83,1.58v5.75C238.59,170.42,238.22,170.7,237.76,170.44Z"></path><path class="cls-1" d="M207.8,150.23,202.15,147a1.93,1.93,0,0,1-.8-1.53h0c0-.59.36-.87.8-.61l5.65,3.26a1.9,1.9,0,0,1,.8,1.53h0C208.6,150.21,208.25,150.48,207.8,150.23Z"></path><path class="cls-18" d="M212.62,151.94c0,.59-.42.83-.93.53a2,2,0,0,1-.92-1.6c0-.59.41-.83.92-.53A2,2,0,0,1,212.62,151.94Z"></path><path class="cls-18" d="M215.88,153.82c0,.59-.41.83-.92.54a2.06,2.06,0,0,1-.93-1.6c0-.6.42-.83.93-.54A2,2,0,0,1,215.88,153.82Z"></path><path class="cls-1" d="M219.15,155.71c0,.59-.42.83-.93.53a2,2,0,0,1-.92-1.6c0-.59.41-.83.92-.53A2,2,0,0,1,219.15,155.71Z"></path><path class="cls-18" d="M222.41,157.6c0,.59-.41.83-.92.53a2.06,2.06,0,0,1-.93-1.6c0-.59.42-.83.93-.54A2.06,2.06,0,0,1,222.41,157.6Z"></path><path class="cls-18" d="M236.17,167.23l-1.9-1.1a1.23,1.23,0,0,1-.51-1v-2c0-.38.23-.56.51-.39l1.9,1.1a1.21,1.21,0,0,1,.52,1v2C236.69,167.22,236.46,167.4,236.17,167.23Z"></path><path class="cls-14" d="M238.92,186.62l-40.16-23.18a3.89,3.89,0,0,1-1.62-3.11v-7.66c0-1.19.72-1.74,1.62-1.23l40.16,23.19a3.89,3.89,0,0,1,1.62,3.11v7.65C240.54,186.59,239.82,187.14,238.92,186.62Z"></path><path class="cls-19" d="M237.76,183.94l-37.84-21.85a2,2,0,0,1-.83-1.58v-5.76c0-.61.37-.88.83-.62L237.76,176a2,2,0,0,1,.83,1.58v5.76C238.59,183.92,238.22,184.2,237.76,183.94Z"></path><path class="cls-1" d="M207.8,163.73l-5.65-3.26a1.93,1.93,0,0,1-.8-1.53h0c0-.59.36-.86.8-.61l5.65,3.26a1.9,1.9,0,0,1,.8,1.53h0C208.6,163.72,208.25,164,207.8,163.73Z"></path><path class="cls-16" d="M212.62,165.44c0,.59-.42.83-.93.54a2.06,2.06,0,0,1-.92-1.61c0-.59.41-.83.92-.53A2,2,0,0,1,212.62,165.44Z"></path><path class="cls-18" d="M215.88,167.33c0,.59-.41.83-.92.53a2,2,0,0,1-.93-1.6c0-.59.42-.83.93-.54A2.06,2.06,0,0,1,215.88,167.33Z"></path><path class="cls-1" d="M219.15,169.21c0,.59-.42.83-.93.54a2.06,2.06,0,0,1-.92-1.61c0-.59.41-.83.92-.53A2,2,0,0,1,219.15,169.21Z"></path><path class="cls-18" d="M222.41,171.1c0,.59-.41.83-.92.53a2,2,0,0,1-.93-1.6c0-.59.42-.83.93-.54A2.06,2.06,0,0,1,222.41,171.1Z"></path><path class="cls-18" d="M236.17,180.73l-1.9-1.09a1.26,1.26,0,0,1-.51-1v-2c0-.38.23-.55.51-.39l1.9,1.1a1.21,1.21,0,0,1,.52,1v2C236.69,180.72,236.46,180.9,236.17,180.73Z"></path><path class="cls-14" d="M238.92,200.13l-40.16-23.19a3.89,3.89,0,0,1-1.62-3.11v-7.65c0-1.2.72-1.75,1.62-1.23l40.16,23.18a3.89,3.89,0,0,1,1.62,3.11v7.66C240.54,200.09,239.82,200.65,238.92,200.13Z"></path><path class="cls-19" d="M237.76,197.44l-37.84-21.85a2,2,0,0,1-.83-1.58v-5.75c0-.61.37-.89.83-.63l37.84,21.85a2,2,0,0,1,.83,1.58v5.76C238.59,197.43,238.22,197.7,237.76,197.44Z"></path><path class="cls-1" d="M207.8,177.23,202.15,174a1.91,1.91,0,0,1-.8-1.53h0c0-.59.36-.86.8-.61l5.65,3.26a1.92,1.92,0,0,1,.8,1.54h0C208.6,177.22,208.25,177.49,207.8,177.23Z"></path><path class="cls-16" d="M212.62,178.94c0,.59-.42.83-.93.54a2.06,2.06,0,0,1-.92-1.61c0-.59.41-.83.92-.53A2,2,0,0,1,212.62,178.94Z"></path><path class="cls-18" d="M215.88,180.83c0,.59-.41.83-.92.53a2,2,0,0,1-.93-1.6c0-.59.42-.83.93-.53A2,2,0,0,1,215.88,180.83Z"></path><path class="cls-1" d="M219.15,182.71c0,.59-.42.83-.93.54a2,2,0,0,1-.92-1.6c0-.6.41-.83.92-.54A2.06,2.06,0,0,1,219.15,182.71Z"></path><path class="cls-18" d="M222.41,184.6c0,.59-.41.83-.92.53a2,2,0,0,1-.93-1.6c0-.59.42-.83.93-.53A2,2,0,0,1,222.41,184.6Z"></path><path class="cls-18" d="M236.17,194.24l-1.9-1.1a1.26,1.26,0,0,1-.51-1v-2c0-.38.23-.55.51-.39l1.9,1.1a1.21,1.21,0,0,1,.52,1v2C236.69,194.23,236.46,194.4,236.17,194.24Z"></path><path class="cls-14" d="M238.92,213.63l-40.16-23.19a3.87,3.87,0,0,1-1.62-3.1v-7.66c0-1.2.72-1.75,1.62-1.23l40.16,23.18a3.89,3.89,0,0,1,1.62,3.11v7.66C240.54,213.6,239.82,214.15,238.92,213.63Z"></path><path class="cls-19" d="M237.76,210.94l-37.84-21.85a2,2,0,0,1-.83-1.58v-5.75c0-.61.37-.89.83-.63L237.76,203a2,2,0,0,1,.83,1.57v5.76C238.59,210.93,238.22,211.21,237.76,210.94Z"></path><path class="cls-1" d="M207.8,190.74l-5.65-3.27a1.91,1.91,0,0,1-.8-1.53h0c0-.59.36-.86.8-.6l5.65,3.26a1.89,1.89,0,0,1,.8,1.53h0C208.6,190.72,208.25,191,207.8,190.74Z"></path><path class="cls-18" d="M212.62,192.45c0,.59-.42.82-.93.53a2,2,0,0,1-.92-1.6c0-.59.41-.83.92-.54A2.06,2.06,0,0,1,212.62,192.45Z"></path><path class="cls-18" d="M215.88,194.33c0,.59-.41.83-.92.54a2.07,2.07,0,0,1-.93-1.61c0-.59.42-.83.93-.53A2,2,0,0,1,215.88,194.33Z"></path><path class="cls-1" d="M219.15,196.22c0,.59-.42.83-.93.53a2,2,0,0,1-.92-1.6c0-.59.41-.83.92-.54A2.07,2.07,0,0,1,219.15,196.22Z"></path><path class="cls-18" d="M222.41,198.1c0,.59-.41.83-.92.54a2.07,2.07,0,0,1-.93-1.61c0-.59.42-.83.93-.53A2,2,0,0,1,222.41,198.1Z"></path><path class="cls-1" d="M236.17,207.74l-1.9-1.1a1.23,1.23,0,0,1-.51-1v-2c0-.38.23-.55.51-.39l1.9,1.1a1.24,1.24,0,0,1,.52,1v2C236.69,207.73,236.46,207.9,236.17,207.74Z"></path><path class="cls-14" d="M238.92,227.13,198.76,204a3.89,3.89,0,0,1-1.62-3.11v-7.66c0-1.2.72-1.75,1.62-1.23l40.16,23.18a3.9,3.9,0,0,1,1.62,3.11v7.66C240.54,227.1,239.82,227.65,238.92,227.13Z"></path><path class="cls-19" d="M237.76,224.45l-37.84-21.86a2,2,0,0,1-.83-1.57v-5.76c0-.61.37-.89.83-.62l37.84,21.85a2,2,0,0,1,.83,1.58v5.75C238.59,224.43,238.22,224.71,237.76,224.45Z"></path><path class="cls-1" d="M207.8,204.24,202.15,201a2,2,0,0,1-.8-1.54h0c0-.59.36-.86.8-.6l5.65,3.26a1.89,1.89,0,0,1,.8,1.53h0C208.6,204.22,208.25,204.49,207.8,204.24Z"></path><path class="cls-18" d="M212.62,206c0,.59-.42.83-.93.53a2,2,0,0,1-.92-1.6c0-.59.41-.83.92-.54A2.07,2.07,0,0,1,212.62,206Z"></path><path class="cls-16" d="M215.88,207.83c0,.59-.41.83-.92.54a2.07,2.07,0,0,1-.93-1.61c0-.59.42-.83.93-.53A2,2,0,0,1,215.88,207.83Z"></path><path class="cls-1" d="M219.15,209.72c0,.59-.42.83-.93.53a2,2,0,0,1-.92-1.6c0-.59.41-.83.92-.53A2,2,0,0,1,219.15,209.72Z"></path><path class="cls-16" d="M222.41,211.6c0,.59-.41.83-.92.54a2.06,2.06,0,0,1-.93-1.6c0-.6.42-.83.93-.54A2,2,0,0,1,222.41,211.6Z"></path><path class="cls-1" d="M236.17,221.24l-1.9-1.1a1.23,1.23,0,0,1-.51-1v-2c0-.38.23-.56.51-.39l1.9,1.1a1.21,1.21,0,0,1,.52,1v2C236.69,221.23,236.46,221.4,236.17,221.24Z"></path><path class="cls-14" d="M238.92,240.63l-40.16-23.18a3.89,3.89,0,0,1-1.62-3.11v-7.66c0-1.2.72-1.75,1.62-1.23l40.16,23.19a3.89,3.89,0,0,1,1.62,3.11v7.65C240.54,240.6,239.82,241.15,238.92,240.63Z"></path><path class="cls-19" d="M237.76,238,199.92,216.1a2,2,0,0,1-.83-1.58v-5.76c0-.61.37-.89.83-.62L237.76,230a2,2,0,0,1,.83,1.58v5.75C238.59,237.93,238.22,238.21,237.76,238Z"></path><path class="cls-1" d="M207.8,217.74l-5.65-3.26a1.93,1.93,0,0,1-.8-1.53h0c0-.59.36-.87.8-.61l5.65,3.26a1.9,1.9,0,0,1,.8,1.53h0C208.6,217.72,208.25,218,207.8,217.74Z"></path><path class="cls-18" d="M212.62,219.45c0,.59-.42.83-.93.53a2,2,0,0,1-.92-1.6c0-.59.41-.83.92-.53A2,2,0,0,1,212.62,219.45Z"></path><path class="cls-18" d="M215.88,221.34c0,.59-.41.82-.92.53a2.06,2.06,0,0,1-.93-1.6c0-.59.42-.83.93-.54A2,2,0,0,1,215.88,221.34Z"></path><path class="cls-1" d="M219.15,223.22c0,.59-.42.83-.93.54a2.06,2.06,0,0,1-.92-1.61c0-.59.41-.83.92-.53A2,2,0,0,1,219.15,223.22Z"></path><path class="cls-18" d="M222.41,225.11c0,.59-.41.83-.92.53a2,2,0,0,1-.93-1.6c0-.59.42-.83.93-.54A2.06,2.06,0,0,1,222.41,225.11Z"></path><path class="cls-18" d="M236.17,234.74l-1.9-1.1a1.23,1.23,0,0,1-.51-1v-2c0-.38.23-.56.51-.39l1.9,1.1a1.21,1.21,0,0,1,.52,1v2C236.69,234.73,236.46,234.91,236.17,234.74Z"></path><path class="cls-14" d="M238.92,254.13,198.76,231a3.89,3.89,0,0,1-1.62-3.11v-7.65c0-1.2.72-1.75,1.62-1.24l40.16,23.19a3.89,3.89,0,0,1,1.62,3.11v7.65C240.54,254.1,239.82,254.65,238.92,254.13Z"></path><path class="cls-19" d="M237.76,251.45,199.92,229.6a2,2,0,0,1-.83-1.58v-5.76c0-.6.37-.88.83-.62l37.84,21.85a2,2,0,0,1,.83,1.58v5.76C238.59,251.43,238.22,251.71,237.76,251.45Z"></path><path class="cls-1" d="M207.8,231.24,202.15,228a1.93,1.93,0,0,1-.8-1.53h0c0-.59.36-.86.8-.61l5.65,3.26a1.92,1.92,0,0,1,.8,1.54h0C208.6,231.23,208.25,231.5,207.8,231.24Z"></path><path class="cls-16" d="M213.65,233.68c0,1.12-.78,1.57-1.75,1a3.85,3.85,0,0,1-1.75-3c0-1.11.78-1.56,1.75-1A3.87,3.87,0,0,1,213.65,233.68Z"></path><path class="cls-18" d="M220.41,237.64c0,.59-.41.83-.92.54a2.07,2.07,0,0,1-.93-1.61c0-.59.42-.83.93-.53A2,2,0,0,1,220.41,237.64Z"></path><path class="cls-1" d="M223.68,239.53c0,.59-.41.83-.93.53a2,2,0,0,1-.92-1.6c0-.59.41-.83.92-.54A2,2,0,0,1,223.68,239.53Z"></path><path class="cls-18" d="M227,241.41c0,.59-.42.83-.93.54a2.07,2.07,0,0,1-.93-1.61c0-.59.42-.83.93-.53A2,2,0,0,1,227,241.41Z"></path><path class="cls-1" d="M236.17,248.24l-1.9-1.09a1.26,1.26,0,0,1-.51-1v-2c0-.38.23-.55.51-.39l1.9,1.1a1.21,1.21,0,0,1,.52,1v2C236.69,248.23,236.46,248.41,236.17,248.24Z"></path><path class="cls-14" d="M172.13,243.15a.61.61,0,0,1-.51-.29.59.59,0,0,1,.21-.8l7.92-4.58a2.93,2.93,0,0,0,1.46-2.53v-4.19a.59.59,0,0,1,1.17,0V235a4.09,4.09,0,0,1-2,3.54l-7.92,4.58A.6.6,0,0,1,172.13,243.15Z"></path><rect class="cls-14" x="166.02" y="239.47" width="4.82" height="10.4" transform="translate(296.89 -23.15) rotate(60.17)"></rect><path class="cls-14" d="M174.64,243.07a3.78,3.78,0,0,0-1.69-3c-.94-.54-1.71-.1-1.71,1a3.75,3.75,0,0,0,1.69,3C173.87,244.6,174.64,244.16,174.64,243.07Z"></path><rect class="cls-14" x="154.51" y="242.25" width="7.81" height="16.32" transform="translate(296.85 -11.57) rotate(60.17)"></rect><path class="cls-15" d="M164.2,244.32l3.05-1.76a6.23,6.23,0,0,1,2.4,4.19l-3.05,1.75A6.23,6.23,0,0,1,164.2,244.32Z"></path><path class="cls-14" d="M168.25,248a6.15,6.15,0,0,0-2.75-4.8c-1.52-.88-2.76-.17-2.77,1.59a6.12,6.12,0,0,0,2.75,4.79C167,250.43,168.24,249.72,168.25,248Z"></path><path class="cls-1" d="M171.79,242c.45-.26.45-.67,0-.93a1.77,1.77,0,0,0-1.6,0c-.45.25-.45.66,0,.92A1.77,1.77,0,0,0,171.79,242Z"></path><path class="cls-1" d="M134.43,339.21,34.77,281.67c-2.82-1.63-2.47-4.47.79-6.35l67.86-39.16c3.25-1.88,8.18-2.09,11-.46l99.65,57.54c2.82,1.63,2.47,4.47-.79,6.35l-67.86,39.16C142.17,340.63,137.24,340.84,134.43,339.21Z"></path><path class="cls-18" d="M216,282.49l-13.62-1.8-87.93-50.77c-2.82-1.62-7.75-1.42-11,.46l-62.31,36-8.24-1.08v4.67h0a3.2,3.2,0,0,0,1.89,2.89l99.66,57.53c2.81,1.63,7.74,1.43,11-.45l67.86-39.17c1.84-1.05,2.75-2.42,2.69-3.7h0Z"></path><path class="cls-15" d="M149.9,250.41l-6.25-3.6H75L41.11,266.34l-8.24-1.08v4.67h0a3.2,3.2,0,0,0,1.89,2.89l99.66,57.53a10.29,10.29,0,0,0,5.67,1.07Z"></path><path class="cls-14" d="M36.52,265.74l-3.65-.48v4.67h0a3.2,3.2,0,0,0,1.89,2.89l1.75,1Z"></path><path class="cls-20" d="M135.43,330.82a12.78,12.78,0,0,0,9.34-.58V319.82h-9.34Z"></path><path class="cls-1" d="M134.43,325.69,34.77,268.15c-2.82-1.63-2.47-4.47.79-6.35l67.86-39.17c3.25-1.88,8.18-2.08,11-.45l99.65,57.53c2.82,1.63,2.47,4.48-.79,6.35l-67.86,39.17C142.17,327.11,137.24,327.31,134.43,325.69Z"></path><path class="cls-16" d="M213.28,284.36l-67.86,39.16c-3.25,1.88-8.18,2.09-11,.46L34.77,266.44A3.66,3.66,0,0,1,33,264.52c-.45,1.34.12,2.69,1.75,3.63l99.66,57.54c2.81,1.62,7.74,1.42,11-.46l67.86-39.17c2.19-1.26,3.06-3,2.55-4.43A5.28,5.28,0,0,1,213.28,284.36Z"></path><path class="cls-18" d="M77.15,249.1l-4.51-2.6c-.36-.21-.31-.58.11-.82l5.32-3.07a1.57,1.57,0,0,1,1.41-.06l4.51,2.6c.36.21.32.58-.1.82L78.57,249A1.59,1.59,0,0,1,77.15,249.1Z"></path><path class="cls-18" d="M84.12,253.12l-4.51-2.6c-.36-.21-.32-.58.1-.82L85,246.63a1.57,1.57,0,0,1,1.41-.06l4.51,2.6c.37.21.32.58-.1.82l-5.32,3.07A1.57,1.57,0,0,1,84.12,253.12Z"></path><path class="cls-18" d="M91.08,257.14l-4.51-2.6c-.36-.21-.32-.58.1-.82L92,250.65a1.57,1.57,0,0,1,1.41-.06l4.51,2.6c.36.21.31.58-.1.82l-5.33,3.07A1.57,1.57,0,0,1,91.08,257.14Z"></path><path class="cls-18" d="M100.71,253.82l-4.51-2.6c-.36-.21-.31-.58.1-.82l4.47-2.58a1.6,1.6,0,0,1,1.41-.06l4.51,2.61c.36.21.32.57-.1.81l-4.47,2.58A1.57,1.57,0,0,1,100.71,253.82Z"></path><path class="cls-18" d="M107.67,257.84l-4.5-2.6c-.37-.21-.32-.58.1-.82l4.46-2.58a1.62,1.62,0,0,1,1.42-.06l4.51,2.61c.36.21.31.57-.11.81l-4.46,2.58A1.59,1.59,0,0,1,107.67,257.84Z"></path><path class="cls-18" d="M114.64,261.86l-4.51-2.6c-.36-.21-.32-.58.1-.82l4.47-2.58a1.6,1.6,0,0,1,1.41-.06l4.51,2.61c.36.21.32.57-.1.81l-4.47,2.58A1.57,1.57,0,0,1,114.64,261.86Z"></path><path class="cls-18" d="M121.6,265.88l-4.51-2.6c-.36-.21-.31-.58.1-.82l4.47-2.58a1.56,1.56,0,0,1,1.41-.05l4.51,2.6c.37.21.32.57-.1.81L123,265.82A1.57,1.57,0,0,1,121.6,265.88Z"></path><path class="cls-18" d="M128.56,269.9l-4.5-2.6c-.37-.21-.32-.58.1-.82l4.47-2.58a1.56,1.56,0,0,1,1.41,0l4.51,2.6c.36.21.31.57-.1.81L130,269.84A1.56,1.56,0,0,1,128.56,269.9Z"></path><path class="cls-18" d="M135.53,273.92l-4.51-2.6c-.36-.21-.32-.57.1-.82l4.47-2.58a1.56,1.56,0,0,1,1.41-.05l4.51,2.6c.36.21.32.57-.1.81l-4.47,2.58A1.54,1.54,0,0,1,135.53,273.92Z"></path><path class="cls-18" d="M142.49,277.94l-4.51-2.6c-.36-.21-.31-.57.1-.82l4.47-2.58a1.56,1.56,0,0,1,1.41-.05l4.51,2.6c.37.21.32.57-.1.82l-4.47,2.57A1.54,1.54,0,0,1,142.49,277.94Z"></path><path class="cls-18" d="M149.46,282l-4.51-2.6c-.37-.21-.32-.57.1-.82l4.47-2.57a1.54,1.54,0,0,1,1.41-.06l4.51,2.6c.36.21.31.57-.1.82l-4.47,2.57A1.54,1.54,0,0,1,149.46,282Z"></path><path class="cls-18" d="M156.42,286l-4.51-2.6c-.36-.21-.32-.57.1-.82l4.47-2.57a1.54,1.54,0,0,1,1.41-.06l4.51,2.6c.36.21.32.57-.1.82l-4.47,2.58A1.56,1.56,0,0,1,156.42,286Z"></path><path class="cls-18" d="M163.38,290l-4.51-2.6c-.36-.21-.31-.57.1-.81l4.47-2.58a1.54,1.54,0,0,1,1.41-.06l4.51,2.6c.37.21.32.57-.1.82L164.79,290A1.56,1.56,0,0,1,163.38,290Z"></path><path class="cls-15" d="M111,251.92l-4.51-2.61c-.36-.2-.31-.57.1-.81l4.47-2.58a1.57,1.57,0,0,1,1.41-.06l4.51,2.6c.37.21.32.58-.1.82l-4.47,2.58A1.57,1.57,0,0,1,111,251.92Z"></path><path class="cls-15" d="M103.9,247.84l-4.51-2.61c-.36-.2-.31-.57.11-.81l4.46-2.58a1.59,1.59,0,0,1,1.42-.06l4.51,2.6c.36.21.31.58-.11.82l-4.46,2.58A1.59,1.59,0,0,1,103.9,247.84Z"></path><path class="cls-18" d="M96.83,243.75l-9.72-5.61c-.36-.21-.31-.57.11-.81l4.46-2.58a1.59,1.59,0,0,1,1.42-.06l9.71,5.61c.36.21.31.57-.1.81l-4.47,2.58A1.57,1.57,0,0,1,96.83,243.75Z"></path><path class="cls-18" d="M101.77,238.78l-7.88-4.55c-.36-.21-.31-.57.1-.82l4.47-2.58a1.56,1.56,0,0,1,1.41-.05l7.88,4.55c.37.21.32.57-.1.81l-4.46,2.58A1.59,1.59,0,0,1,101.77,238.78Z"></path><path class="cls-15" d="M117.93,255.94l-4.5-2.61c-.37-.2-.32-.57.1-.81l4.46-2.58a1.59,1.59,0,0,1,1.42-.06l4.51,2.6c.36.21.31.58-.1.82l-4.47,2.58A1.59,1.59,0,0,1,117.93,255.94Z"></path><path class="cls-18" d="M124.9,260l-4.51-2.6c-.36-.21-.32-.58.1-.82L125,254a1.57,1.57,0,0,1,1.41-.06l4.51,2.6c.36.21.32.58-.1.82l-4.47,2.58A1.57,1.57,0,0,1,124.9,260Z"></path><path class="cls-18" d="M131.86,264l-4.51-2.6c-.36-.21-.31-.58.1-.82l4.47-2.58a1.57,1.57,0,0,1,1.41-.06l4.51,2.61c.37.2.32.57-.1.81l-4.47,2.58A1.57,1.57,0,0,1,131.86,264Z"></path><path class="cls-18" d="M138.83,268l-4.51-2.6c-.37-.21-.32-.58.1-.82l4.47-2.58a1.57,1.57,0,0,1,1.41-.06l4.51,2.61c.36.2.31.57-.1.81l-4.47,2.58A1.57,1.57,0,0,1,138.83,268Z"></path><path class="cls-18" d="M145.79,272l-4.51-2.6c-.36-.21-.32-.58.1-.82l4.47-2.58a1.57,1.57,0,0,1,1.41-.06l4.51,2.61c.36.2.32.57-.1.81L147.2,272A1.57,1.57,0,0,1,145.79,272Z"></path><path class="cls-18" d="M152.75,276l-4.51-2.6c-.36-.21-.31-.58.1-.82l4.47-2.58a1.57,1.57,0,0,1,1.41-.06l4.51,2.61c.37.21.32.57-.1.81L154.16,276A1.57,1.57,0,0,1,152.75,276Z"></path><path class="cls-18" d="M159.72,280.06l-4.51-2.6c-.37-.21-.32-.58.1-.82l4.47-2.58a1.57,1.57,0,0,1,1.41-.06l4.51,2.61c.36.21.31.57-.1.81L161.13,280A1.57,1.57,0,0,1,159.72,280.06Z"></path><path class="cls-18" d="M166.68,284.08l-4.51-2.6c-.36-.21-.32-.58.1-.82l4.47-2.58a1.57,1.57,0,0,1,1.41-.06l4.51,2.61c.36.21.32.57-.1.81L168.09,284A1.57,1.57,0,0,1,166.68,284.08Z"></path><path class="cls-18" d="M173.64,288.1l-4.51-2.6c-.36-.21-.31-.58.1-.82l4.47-2.58a1.57,1.57,0,0,1,1.41-.06l4.51,2.61c.37.21.32.57-.1.81L175.05,288A1.57,1.57,0,0,1,173.64,288.1Z"></path><path class="cls-18" d="M186,295.25l-9.84-5.68c-.36-.21-.31-.58.1-.82l4.47-2.58a1.6,1.6,0,0,1,1.41-.06l9.84,5.68c.37.21.32.58-.1.82l-4.47,2.58A1.57,1.57,0,0,1,186,295.25Z"></path><path class="cls-18" d="M199.58,287.42l-8.31-4.79c-.36-.21-.31-.58.11-.82l4.46-2.58a1.59,1.59,0,0,1,1.42-.06l8.3,4.8c.36.21.32.57-.1.81L201,287.36A1.57,1.57,0,0,1,199.58,287.42Z"></path><path class="cls-18" d="M130.13,255.15l-4.51-2.6c-.36-.21-.32-.58.1-.82l4.47-2.58a1.6,1.6,0,0,1,1.41-.06l4.51,2.61c.36.21.32.57-.1.81l-4.47,2.58A1.57,1.57,0,0,1,130.13,255.15Z"></path><path class="cls-18" d="M123,251l-4.51-2.6c-.36-.21-.31-.58.1-.82l4.47-2.58a1.62,1.62,0,0,1,1.42-.06l4.5,2.61c.37.21.32.57-.1.81L124.41,251A1.59,1.59,0,0,1,123,251Z"></path><path class="cls-15" d="M115.86,246.91l-4.51-2.6c-.37-.21-.32-.58.1-.82l4.47-2.58a1.57,1.57,0,0,1,1.41-.06l4.51,2.61c.36.21.31.57-.1.81l-4.47,2.58A1.57,1.57,0,0,1,115.86,246.91Z"></path><path class="cls-18" d="M108.72,242.79l-4.51-2.6c-.36-.21-.32-.58.1-.82l4.47-2.58a1.57,1.57,0,0,1,1.41-.06l4.51,2.61c.36.21.32.57-.1.81l-4.47,2.58A1.57,1.57,0,0,1,108.72,242.79Z"></path><path class="cls-18" d="M137.09,259.17l-4.51-2.6c-.36-.21-.31-.58.11-.82l4.46-2.58a1.62,1.62,0,0,1,1.42-.06l4.5,2.61c.37.21.32.57-.1.81l-4.46,2.58A1.59,1.59,0,0,1,137.09,259.17Z"></path><path class="cls-18" d="M144.06,263.19l-4.51-2.6c-.37-.21-.32-.58.1-.82l4.47-2.58a1.56,1.56,0,0,1,1.41-.05l4.51,2.6c.36.21.31.57-.1.81l-4.47,2.58A1.57,1.57,0,0,1,144.06,263.19Z"></path><path class="cls-18" d="M151,267.21l-4.51-2.6c-.36-.21-.32-.58.1-.82l4.47-2.58a1.56,1.56,0,0,1,1.41,0l4.51,2.6c.36.21.32.57-.1.81l-4.47,2.58A1.54,1.54,0,0,1,151,267.21Z"></path><path class="cls-18" d="M158,271.23l-4.51-2.6c-.36-.21-.31-.57.11-.82l4.46-2.58a1.58,1.58,0,0,1,1.42-.05l4.5,2.6c.37.21.32.57-.1.81l-4.46,2.58A1.56,1.56,0,0,1,158,271.23Z"></path><path class="cls-18" d="M165,275.25l-4.51-2.6c-.36-.21-.32-.57.1-.82l4.47-2.58a1.56,1.56,0,0,1,1.41-.05l4.51,2.6c.36.21.31.57-.1.82l-4.47,2.57A1.54,1.54,0,0,1,165,275.25Z"></path><path class="cls-18" d="M171.91,279.27l-4.51-2.6c-.36-.21-.32-.57.1-.82l4.47-2.57a1.54,1.54,0,0,1,1.41-.06l4.51,2.6c.36.21.32.57-.1.82l-4.47,2.57A1.54,1.54,0,0,1,171.91,279.27Z"></path><path class="cls-18" d="M178.87,283.29l-4.51-2.6c-.36-.21-.31-.57.11-.82l4.46-2.57a1.56,1.56,0,0,1,1.42-.06l4.5,2.6c.37.21.32.57-.1.82l-4.46,2.58A1.58,1.58,0,0,1,178.87,283.29Z"></path><path class="cls-18" d="M185.84,287.31l-4.51-2.6c-.36-.21-.32-.57.1-.81l4.47-2.58a1.54,1.54,0,0,1,1.41-.06l4.51,2.6c.36.21.31.57-.1.82l-4.47,2.58A1.56,1.56,0,0,1,185.84,287.31Z"></path><path class="cls-18" d="M192.8,291.33l-4.51-2.6c-.36-.21-.32-.57.1-.81l4.47-2.58a1.54,1.54,0,0,1,1.41-.06l4.51,2.6c.36.21.32.58-.1.82l-4.47,2.58A1.56,1.56,0,0,1,192.8,291.33Z"></path><path class="cls-18" d="M126.46,245.21,122,242.6c-.36-.2-.31-.57.1-.81l4.47-2.58a1.59,1.59,0,0,1,1.42-.06l4.5,2.6c.37.21.32.58-.1.82l-4.46,2.58A1.59,1.59,0,0,1,126.46,245.21Z"></path><path class="cls-18" d="M119.53,241.21,115,238.6c-.36-.21-.31-.57.11-.81l4.46-2.58a1.59,1.59,0,0,1,1.42-.06l4.51,2.6c.36.21.31.58-.11.82L121,241.15A1.59,1.59,0,0,1,119.53,241.21Z"></path><path class="cls-18" d="M112.61,237.21l-4.51-2.61c-.37-.21-.32-.57.1-.81l4.47-2.58a1.57,1.57,0,0,1,1.41-.06l4.51,2.6c.36.21.31.58-.1.82L114,237.15A1.57,1.57,0,0,1,112.61,237.21Z"></path><path class="cls-18" d="M105.68,233.21l-4.51-2.61c-.36-.21-.32-.57.1-.81l4.47-2.58a1.57,1.57,0,0,1,1.41-.06l4.51,2.6c.36.21.31.58-.1.82l-4.47,2.58A1.57,1.57,0,0,1,105.68,233.21Z"></path><path class="cls-18" d="M112.8,229.09l-4.51-2.6c-.36-.21-.31-.57.1-.82l1.48-.85a1.57,1.57,0,0,1,1.41-.06l4.51,2.61c.36.21.32.57-.1.81l-1.48.85A1.54,1.54,0,0,1,112.8,229.09Z"></path><path class="cls-18" d="M121.84,234.31l-4.51-2.6c-.36-.21-.31-.57.11-.82l1.47-.85a1.57,1.57,0,0,1,1.41-.06l4.51,2.61c.37.21.32.57-.1.81l-1.47.85A1.56,1.56,0,0,1,121.84,234.31Z"></path><path class="cls-18" d="M128.74,238.3l-4.51-2.61c-.36-.21-.31-.57.11-.81l1.47-.85a1.54,1.54,0,0,1,1.41-.06l4.51,2.6c.37.21.32.57-.1.82l-1.47.85A1.59,1.59,0,0,1,128.74,238.3Z"></path><path class="cls-18" d="M135.64,242.28l-4.51-2.6c-.36-.21-.31-.58.11-.82l1.47-.85a1.57,1.57,0,0,1,1.41-.06l4.51,2.6c.37.21.32.58-.1.82l-1.47.85A1.59,1.59,0,0,1,135.64,242.28Z"></path><path class="cls-18" d="M142.54,246.26l-4.51-2.6c-.36-.21-.31-.57.11-.81l1.47-.86a1.6,1.6,0,0,1,1.41-.06l4.51,2.61c.37.21.32.57-.1.81l-1.47.86A1.59,1.59,0,0,1,142.54,246.26Z"></path><path class="cls-18" d="M181.06,268.5l-4.51-2.6c-.36-.21-.31-.57.11-.81l1.47-.86a1.62,1.62,0,0,1,1.42-.06l4.5,2.61c.37.21.32.57-.1.81l-1.47.86A1.58,1.58,0,0,1,181.06,268.5Z"></path><path class="cls-18" d="M188,272.49l-4.51-2.61c-.36-.2-.31-.57.11-.81l1.47-.85a1.59,1.59,0,0,1,1.42-.06l4.5,2.6c.37.21.32.58-.1.82l-1.47.85A1.59,1.59,0,0,1,188,272.49Z"></path><path class="cls-18" d="M194.86,276.47l-4.51-2.6c-.36-.21-.31-.58.11-.82l1.47-.85a1.59,1.59,0,0,1,1.42-.06l4.5,2.6c.37.21.32.58-.1.82l-1.47.85A1.59,1.59,0,0,1,194.86,276.47Z"></path><path class="cls-18" d="M201.76,280.46l-4.51-2.61c-.36-.21-.31-.57.11-.81l1.47-.86a1.58,1.58,0,0,1,1.42-.05l4.5,2.6c.37.21.32.57-.1.81l-1.47.86A1.62,1.62,0,0,1,201.76,280.46Z"></path><path class="cls-18" d="M133.43,249.23l-4.51-2.61c-.37-.2-.32-.57.1-.81l4.47-2.58a1.57,1.57,0,0,1,1.41-.06l4.51,2.6c.36.21.31.58-.1.82l-4.47,2.58A1.57,1.57,0,0,1,133.43,249.23Z"></path><path class="cls-18" d="M140.39,253.25l-4.51-2.61c-.36-.2-.32-.57.1-.81l4.47-2.58a1.57,1.57,0,0,1,1.41-.06l4.51,2.6c.36.21.32.58-.1.82l-4.47,2.58A1.57,1.57,0,0,1,140.39,253.25Z"></path><path class="cls-18" d="M147.35,257.27l-4.51-2.6c-.36-.21-.31-.58.11-.82l4.46-2.58a1.59,1.59,0,0,1,1.42-.06l4.5,2.6c.37.21.32.58-.1.82l-4.46,2.58A1.59,1.59,0,0,1,147.35,257.27Z"></path><path class="cls-18" d="M154.32,261.29l-4.51-2.6c-.36-.21-.32-.58.1-.82l4.47-2.58a1.57,1.57,0,0,1,1.41-.06l4.51,2.61c.36.2.31.57-.1.81l-4.47,2.58A1.57,1.57,0,0,1,154.32,261.29Z"></path><path class="cls-18" d="M161.28,265.31l-4.51-2.6c-.36-.21-.32-.58.1-.82l4.47-2.58a1.57,1.57,0,0,1,1.41-.06l4.51,2.61c.36.2.32.57-.1.81l-4.47,2.58A1.57,1.57,0,0,1,161.28,265.31Z"></path><path class="cls-18" d="M168.24,269.33l-4.51-2.6c-.36-.21-.31-.58.11-.82l4.46-2.58a1.59,1.59,0,0,1,1.42-.06l4.5,2.61c.37.2.32.57-.1.81l-4.46,2.58A1.59,1.59,0,0,1,168.24,269.33Z"></path><path class="cls-18" d="M175.21,273.35l-4.51-2.6c-.36-.21-.32-.58.1-.82l4.47-2.58a1.57,1.57,0,0,1,1.41-.06l4.51,2.61c.36.21.31.57-.1.81l-4.47,2.58A1.57,1.57,0,0,1,175.21,273.35Z"></path><path class="cls-18" d="M182.17,277.37l-4.51-2.6c-.36-.21-.32-.58.1-.82l4.47-2.58a1.57,1.57,0,0,1,1.41-.06l4.51,2.61c.36.21.32.57-.1.81l-4.47,2.58A1.57,1.57,0,0,1,182.17,277.37Z"></path><path class="cls-18" d="M189.13,281.39l-4.51-2.6c-.36-.21-.31-.58.11-.82l4.46-2.58a1.59,1.59,0,0,1,1.42-.06l4.51,2.61c.36.21.31.57-.11.81l-4.46,2.58A1.59,1.59,0,0,1,189.13,281.39Z"></path><path class="cls-18" d="M93.62,249.72l-13.28-7.66c-.37-.21-.32-.58.1-.82l4.46-2.58a1.59,1.59,0,0,1,1.42-.06l13.28,7.67c.36.21.31.57-.1.82L95,249.67A1.56,1.56,0,0,1,93.62,249.72Z"></path><path class="cls-18" d="M179.16,299.11l-13.28-7.66c-.36-.21-.31-.58.1-.82l4.47-2.58a1.6,1.6,0,0,1,1.41-.06l13.28,7.67c.37.21.32.58-.1.82l-4.47,2.58A1.56,1.56,0,0,1,179.16,299.11Z"></path><path class="cls-18" d="M151.31,291.92l-4.5-2.61c-.37-.2-.32-.57.1-.81l5.32-3.07a1.54,1.54,0,0,1,1.41-.06l4.51,2.6c.36.21.32.57-.1.82l-5.32,3.07A1.59,1.59,0,0,1,151.31,291.92Z"></path><path class="cls-18" d="M100.75,262.72l-7.22-4.16c-.36-.21-.31-.58.11-.82L99,254.67a1.57,1.57,0,0,1,1.41-.06l7.21,4.16c.36.21.32.58-.1.82l-5.32,3.07A1.57,1.57,0,0,1,100.75,262.72Z"></path><path class="cls-18" d="M144.61,288l-7.22-4.16c-.36-.21-.31-.57.11-.82l5.32-3.07a1.57,1.57,0,0,1,1.41-.06l7.21,4.17c.36.21.32.57-.1.81L146,288A1.56,1.56,0,0,1,144.61,288Z"></path><path class="cls-18" d="M110.79,268.52l-7.21-4.16c-.36-.21-.32-.58.1-.82l5.33-3.07a1.57,1.57,0,0,1,1.41-.06l7.21,4.17c.36.2.32.57-.1.81l-5.32,3.07A1.59,1.59,0,0,1,110.79,268.52Z"></path><path class="cls-18" d="M110.47,260.44l31.35,18.1c.39.23.39.59,0,.81l-5.43,3.14a1.59,1.59,0,0,1-1.41,0l-31.35-18.1Z"></path><path class="cls-18" d="M170.78,299.21l5,2.9c.3.17.26.47-.08.67L173.54,304a1.29,1.29,0,0,1-1.16.05l-5-2.9c-.3-.17-.26-.47.08-.67l2.18-1.26A1.32,1.32,0,0,1,170.78,299.21Z"></path><path class="cls-18" d="M163.76,295.15l5,2.9c.29.17.26.47-.09.67L166.52,300a1.29,1.29,0,0,1-1.16,0l-5-2.9c-.3-.17-.26-.47.08-.67l2.18-1.26A1.29,1.29,0,0,1,163.76,295.15Z"></path><path class="cls-18" d="M156.79,291.13l5,2.9c.3.17.26.47-.08.67L159.55,296a1.27,1.27,0,0,1-1.15.05l-5-2.9c-.29-.18-.26-.47.09-.67l2.17-1.26A1.29,1.29,0,0,1,156.79,291.13Z"></path><path class="cls-18" d="M167.6,292.93l5,2.9c.3.17.26.47-.08.67l-2.18,1.26a1.27,1.27,0,0,1-1.15.05l-5-2.9c-.29-.17-.26-.47.09-.67l2.17-1.26A1.29,1.29,0,0,1,167.6,292.93Z"></path><path class="cls-14" d="M108.51,304a4.26,4.26,0,0,1-2.1-.49h0l-34.8-20.09a1.78,1.78,0,0,1-1-1.53,2.25,2.25,0,0,1,1.3-1.84l23-13.3a5.18,5.18,0,0,1,4.74-.18l34.81,20.1a1.76,1.76,0,0,1,1,1.52,2.22,2.22,0,0,1-1.3,1.84l-23,13.31A5.39,5.39,0,0,1,108.51,304ZM107,302.6a4.16,4.16,0,0,0,3.66-.18l23-13.3c.47-.27.76-.61.76-.9s-.29-.48-.46-.58l-34.8-20.09a4.13,4.13,0,0,0-3.66.17l-23,13.3c-.47.28-.76.61-.76.9s.29.49.46.59L107,302.6Z"></path><path class="cls-16" d="M100.47,282.14l3.41-1.91a1.4,1.4,0,0,1,1.24.06h0c.36.21.41.52.09.7l-3.41,1.91a1.4,1.4,0,0,1-1.24-.06h0C100.19,282.63,100.15,282.32,100.47,282.14Z"></path><path class="cls-16" d="M93.23,286.2l5-2.82a1.38,1.38,0,0,1,1.23.06h0c.37.21.41.52.09.7l-5,2.82a1.38,1.38,0,0,1-1.23-.06h0C93,286.69,92.91,286.38,93.23,286.2Z"></path><path class="cls-16" d="M111.76,288.41l6.51-3.65a1.4,1.4,0,0,1,1.24.06h0c.36.21.4.52.09.7l-6.51,3.65a1.43,1.43,0,0,1-1.24-.06h0C111.48,288.9,111.44,288.58,111.76,288.41Z"></path><path class="cls-16" d="M110.58,282.77l2.14-1.19a1.37,1.37,0,0,1,1.23.05h0c.37.21.41.53.09.71l-2.13,1.19a1.4,1.4,0,0,1-1.24-.06h0C110.31,283.26,110.27,283,110.58,282.77Z"></path><path class="cls-16" d="M105.79,279.16l1.37-.77a1.43,1.43,0,0,1,1.24.06h0c.36.21.4.52.09.7l-1.37.77a1.4,1.4,0,0,1-1.24-.06h0C105.52,279.65,105.48,279.34,105.79,279.16Z"></path><path class="cls-16" d="M99.91,276.16l1.69-1a1.4,1.4,0,0,1,1.24.06h0c.37.21.41.52.09.7l-1.7.95a1.38,1.38,0,0,1-1.23-.06h0C99.63,276.65,99.59,276.34,99.91,276.16Z"></path><path class="cls-16" d="M93.3,279.86l4.48-2.51a1.41,1.41,0,0,1,1.23.06h0c.37.21.41.53.09.7l-4.48,2.51a1.38,1.38,0,0,1-1.23-.06h0C93,280.35,93,280,93.3,279.86Z"></path><path class="cls-16" d="M95.61,275.42l3.22-1.8a1.38,1.38,0,0,1,1.23.06h0c.37.21.41.52.09.7l-3.22,1.8a1.38,1.38,0,0,1-1.23-.06h0C95.33,275.91,95.29,275.6,95.61,275.42Z"></path><path class="cls-16" d="M102.66,287.21l5.69-3.19a1.4,1.4,0,0,1,1.24.06h0c.36.21.4.52.09.7L104,288a1.38,1.38,0,0,1-1.23-.06h0C102.38,287.7,102.34,287.39,102.66,287.21Z"></path><path class="cls-16" d="M105.57,288.73l9.92-5.56a1.4,1.4,0,0,1,1.24.06h0c.37.21.41.52.09.7l-9.92,5.56a1.43,1.43,0,0,1-1.24-.06h0C105.3,289.22,105.26,288.9,105.57,288.73Z"></path><path class="cls-16" d="M104.25,283.17l5.69-3.19a1.41,1.41,0,0,1,1.23.06h0c.37.21.41.53.09.7l-5.69,3.19a1.38,1.38,0,0,1-1.23-.06h0C104,283.66,103.93,283.35,104.25,283.17Z"></path><path class="cls-16" d="M98.34,289.63l2.07-1.16a1.38,1.38,0,0,1,1.23.06h0c.37.21.41.52.09.7l-2.06,1.16a1.4,1.4,0,0,1-1.24-.06h0C98.06,290.12,98,289.81,98.34,289.63Z"></path><path class="cls-16" d="M97.54,280.63l6.84-3.83a1.4,1.4,0,0,1,1.24.06h0c.36.21.4.52.09.7l-6.84,3.83a1.43,1.43,0,0,1-1.24-.05h0C97.26,281.13,97.22,280.81,97.54,280.63Z"></path><path class="cls-14" d="M199.12,240.6a4.36,4.36,0,0,1-2.21-.59l-30.7-17.77a3.1,3.1,0,0,1-.06-5.33l8.5-5.15a.59.59,0,0,1,.8.2.57.57,0,0,1-.2.8l-8.49,5.15a1.9,1.9,0,0,0-.93,1.67,2,2,0,0,0,1,1.65L197.49,239a3.26,3.26,0,0,0,3.33,0l10.57-6.46a.58.58,0,0,1,.8.19.59.59,0,0,1-.19.81L201.42,240A4.39,4.39,0,0,1,199.12,240.6Z"></path><polygon class="cls-1" points="120.29 205.7 108.05 198.63 95.81 205.7 108.05 212.76 120.29 205.7"></polygon><polygon class="cls-2" points="111.61 196.32 111.61 152.31 122.01 146.31 122.01 190.32 111.61 196.32"></polygon><polygon class="cls-3" points="111.61 152.31 101.22 146.31 101.22 190.32 111.61 196.32 111.61 152.31"></polygon><polygon class="cls-4" points="122.01 146.31 111.61 140.31 101.22 146.31 111.61 152.31 122.01 146.31"></polygon><polygon class="cls-5" points="122.01 198.32 111.61 192.32 111.61 196.32 122.01 202.32 122.01 198.32"></polygon><polygon class="cls-6" points="101.22 202.32 101.22 170.31 111.61 164.31 111.61 196.32 101.22 202.32"></polygon><polygon class="cls-7" points="101.22 170.31 90.82 164.31 90.82 196.32 101.22 202.32 101.22 170.31"></polygon><polygon class="cls-8" points="111.61 164.31 101.22 158.31 90.82 164.31 101.22 170.31 111.61 164.31"></polygon><polygon class="cls-9" points="101.22 202.32 101.22 170.31 111.61 164.31 111.61 196.32 101.22 202.32"></polygon><polygon class="cls-9" points="101.22 170.31 90.82 164.31 90.82 196.32 101.22 202.32 101.22 170.31"></polygon><polygon class="cls-10" points="111.61 164.31 101.22 158.31 90.82 164.31 101.22 170.31 111.61 164.31"></polygon><polygon class="cls-11" points="111.61 208.33 111.61 190.32 122.01 184.32 122.01 202.32 111.61 208.33"></polygon><polygon class="cls-12" points="111.61 190.32 101.22 184.32 101.22 202.32 111.61 208.33 111.61 190.32"></polygon><polygon class="cls-13" points="122.01 184.32 111.61 178.32 101.22 184.32 111.61 190.32 122.01 184.32"></polygon><path class="cls-1" d="M51.47,243.35,33.91,233.21c-1.08-.63-.95-1.71.3-2.43l17-9.79a4.67,4.67,0,0,1,4.2-.18L72.93,231c1.08.63.95,1.71-.3,2.43l-17,9.79A4.67,4.67,0,0,1,51.47,243.35Z"></path><path class="cls-15" d="M78.76,223.23h0v-7.59h-17l-5.88-3.39a5.84,5.84,0,0,0-5.26.22l-5.49,3.16h-17v7.81a1.54,1.54,0,0,0,.9,1.41l22,12.7a5.87,5.87,0,0,0,5.26-.22l21.24-12.26A2.08,2.08,0,0,0,78.76,223.23Z"></path><path class="cls-15" d="M53.42,211.71a6.11,6.11,0,0,0-2.82.75l-5.49,3.16h-17v7.81a1.54,1.54,0,0,0,.9,1.41l22,12.7a4.83,4.83,0,0,0,2.44.52Z"></path><path class="cls-14" d="M30,215.61H28.08v7.81a1.54,1.54,0,0,0,.9,1.41l1,.59Z"></path><path class="cls-14" d="M51.32,237.69a6,6,0,0,0,4.2-.05v-8.86h-4.2Z"></path><path class="cls-1" d="M51,229.75l-22-12.7c-1.34-.78-1.18-2.14.38-3L50.6,201.75a5.87,5.87,0,0,1,5.26-.22l22,12.7c1.34.78,1.18,2.14-.38,3L56.24,229.53A5.84,5.84,0,0,1,51,229.75Z"></path><path class="cls-14" d="M51.37,227.46,32.94,216.82c-1.13-.65-1-1.79.32-2.54L51.05,204a4.94,4.94,0,0,1,4.42-.18L73.9,214.46c1.13.65,1,1.79-.32,2.55L55.79,227.28A4.88,4.88,0,0,1,51.37,227.46Z"></path><path class="cls-1" d="M70.67,225.23a2,2,0,0,1-.89,1.54c-.49.28-.89,0-.89-.51a2,2,0,0,1,.89-1.54C70.27,224.44,70.67,224.67,70.67,225.23Z"></path><path class="cls-1" d="M73.53,223.58a2,2,0,0,1-.89,1.54c-.49.28-.89,0-.89-.51a2,2,0,0,1,.89-1.54C73.13,222.79,73.53,223,73.53,223.58Z"></path><path class="cls-1" d="M76.39,221.93a2,2,0,0,1-.89,1.54c-.49.28-.89.05-.89-.51a2,2,0,0,1,.89-1.54C76,221.14,76.39,221.37,76.39,221.93Z"></path><path class="cls-15" d="M78.76,211.1h0v-7.58h-17l-5.88-3.4a5.84,5.84,0,0,0-5.26.22l-5.49,3.17h-17v7.8a1.53,1.53,0,0,0,.9,1.41l22,12.7a5.84,5.84,0,0,0,5.26-.22l21.24-12.26A2.08,2.08,0,0,0,78.76,211.1Z"></path><path class="cls-15" d="M53.42,199.59a6,6,0,0,0-2.82.74l-5.49,3.17h-17v7.8a1.53,1.53,0,0,0,.9,1.41l22,12.7a4.83,4.83,0,0,0,2.44.52Z"></path><path class="cls-14" d="M30,203.49H28.08v7.8a1.53,1.53,0,0,0,.9,1.41l1,.59Z"></path><path class="cls-14" d="M51.32,225.57a6,6,0,0,0,4.2,0v-8.86h-4.2Z"></path><path class="cls-1" d="M51,217.62,29,204.93c-1.34-.78-1.18-2.14.38-3L50.6,189.63a5.84,5.84,0,0,1,5.26-.22l22,12.7c1.34.77,1.18,2.14-.38,3L56.24,217.41A5.84,5.84,0,0,1,51,217.62Z"></path><path class="cls-14" d="M51.37,215.34,32.94,204.7c-1.13-.65-1-1.8.32-2.55l17.79-10.27a4.91,4.91,0,0,1,4.42-.19L73.9,202.33c1.13.66,1,1.8-.32,2.55L55.79,215.16A4.94,4.94,0,0,1,51.37,215.34Z"></path><path class="cls-1" d="M70.67,213.11a2,2,0,0,1-.89,1.53c-.49.29-.89.06-.89-.51a2,2,0,0,1,.89-1.54C70.27,212.31,70.67,212.54,70.67,213.11Z"></path><path class="cls-1" d="M73.53,211.46a2,2,0,0,1-.89,1.53c-.49.29-.89.06-.89-.51a2,2,0,0,1,.89-1.54C73.13,210.66,73.53,210.89,73.53,211.46Z"></path><path class="cls-1" d="M76.39,209.81a2,2,0,0,1-.89,1.53c-.49.29-.89.06-.89-.51a2,2,0,0,1,.89-1.54C76,209,76.39,209.24,76.39,209.81Z"></path><path class="cls-15" d="M78.76,199h0v-7.59h-17L55.86,188a5.87,5.87,0,0,0-5.26.22l-5.49,3.17h-17v7.81a1.54,1.54,0,0,0,.9,1.41l22,12.69a5.84,5.84,0,0,0,5.26-.22l21.24-12.26A2.07,2.07,0,0,0,78.76,199Z"></path><path class="cls-15" d="M53.42,187.46a6.22,6.22,0,0,0-2.82.74l-5.49,3.17h-17v7.81a1.54,1.54,0,0,0,.9,1.41l22,12.69a4.73,4.73,0,0,0,2.44.53Z"></path><path class="cls-14" d="M30,191.36H28.08v7.81a1.54,1.54,0,0,0,.9,1.41l1,.59Z"></path><path class="cls-14" d="M51.32,213.44a6,6,0,0,0,4.2-.05v-8.86h-4.2Z"></path><path class="cls-1" d="M51,205.5,29,192.8c-1.34-.78-1.18-2.14.38-3L50.6,177.5a5.84,5.84,0,0,1,5.26-.22l22,12.7c1.34.78,1.18,2.14-.38,3L56.24,205.28A5.84,5.84,0,0,1,51,205.5Z"></path><path class="cls-14" d="M51.37,203.21,32.94,192.57c-1.13-.65-1-1.79.32-2.55l17.79-10.27a4.91,4.91,0,0,1,4.42-.18L73.9,190.21c1.13.65,1,1.79-.32,2.55L55.79,203A4.91,4.91,0,0,1,51.37,203.21Z"></path><path class="cls-1" d="M70.67,201a2,2,0,0,1-.89,1.54c-.49.28-.89,0-.89-.51a2,2,0,0,1,.89-1.54C70.27,200.18,70.67,200.41,70.67,201Z"></path><path class="cls-1" d="M73.53,199.33a2,2,0,0,1-.89,1.54c-.49.28-.89,0-.89-.51a2,2,0,0,1,.89-1.54C73.13,198.53,73.53,198.76,73.53,199.33Z"></path><path class="cls-1" d="M76.39,197.68a2,2,0,0,1-.89,1.54c-.49.28-.89.05-.89-.51a2,2,0,0,1,.89-1.54C76,196.88,76.39,197.11,76.39,197.68Z"></path><path class="cls-15" d="M78.76,186.85h0v-7.59h-17l-5.88-3.39a5.84,5.84,0,0,0-5.26.22l-5.49,3.16h-17V187a1.53,1.53,0,0,0,.9,1.41l22,12.7a5.84,5.84,0,0,0,5.26-.22l21.24-12.26A2.08,2.08,0,0,0,78.76,186.85Z"></path><path class="cls-15" d="M53.42,175.34a6,6,0,0,0-2.82.74l-5.49,3.16h-17V187a1.53,1.53,0,0,0,.9,1.41l22,12.7a4.83,4.83,0,0,0,2.44.52Z"></path><path class="cls-14" d="M30,179.24H28.08V187a1.53,1.53,0,0,0,.9,1.41l1,.59Z"></path><path class="cls-14" d="M51.32,201.31a6,6,0,0,0,4.2-.05V192.4h-4.2Z"></path><path class="cls-1" d="M51,193.37l-22-12.7c-1.34-.77-1.18-2.14.38-3L50.6,165.37a5.84,5.84,0,0,1,5.26-.21l22,12.69c1.34.78,1.18,2.14-.38,3L56.24,193.15A5.84,5.84,0,0,1,51,193.37Z"></path><path class="cls-14" d="M51.37,191.09,32.94,180.45c-1.13-.66-1-1.8.32-2.55l17.79-10.28a4.94,4.94,0,0,1,4.42-.18L73.9,178.08c1.13.65,1,1.8-.32,2.55L55.79,190.9A4.91,4.91,0,0,1,51.37,191.09Z"></path><path class="cls-1" d="M70.67,188.85a2,2,0,0,1-.89,1.54c-.49.29-.89.06-.89-.51a2,2,0,0,1,.89-1.54C70.27,188.06,70.67,188.29,70.67,188.85Z"></path><path class="cls-1" d="M73.53,187.2a2,2,0,0,1-.89,1.54c-.49.29-.89.06-.89-.51a2,2,0,0,1,.89-1.54C73.13,186.41,73.53,186.64,73.53,187.2Z"></path><path class="cls-1" d="M76.39,185.55a2,2,0,0,1-.89,1.54c-.49.29-.89.06-.89-.51A2,2,0,0,1,75.5,185C76,184.76,76.39,185,76.39,185.55Z"></path><path class="cls-15" d="M78.76,174.73h0v-7.59h-17l-5.88-3.4a5.84,5.84,0,0,0-5.26.22l-5.49,3.17h-17v7.8a1.53,1.53,0,0,0,.9,1.41L51,189a5.84,5.84,0,0,0,5.26-.22l21.24-12.26C78.38,176,78.81,175.35,78.76,174.73Z"></path><path class="cls-15" d="M53.42,163.21a6,6,0,0,0-2.82.74l-5.49,3.17h-17v7.8a1.53,1.53,0,0,0,.9,1.41L51,189a4.63,4.63,0,0,0,2.44.52Z"></path><path class="cls-14" d="M30,167.11H28.08v7.8a1.53,1.53,0,0,0,.9,1.41l1,.59Z"></path><path class="cls-14" d="M51.32,189.19a6,6,0,0,0,4.2-.05v-8.86h-4.2Z"></path><path class="cls-1" d="M51,181.25l-22-12.7c-1.34-.78-1.18-2.14.38-3L50.6,153.25a5.84,5.84,0,0,1,5.26-.22l22,12.7c1.34.78,1.18,2.14-.38,3L56.24,181A5.87,5.87,0,0,1,51,181.25Z"></path><path class="cls-14" d="M51.37,179,32.94,168.32c-1.13-.65-1-1.79.32-2.55L51.05,155.5a4.88,4.88,0,0,1,4.42-.18L73.9,166c1.13.65,1,1.79-.32,2.54L55.79,178.78A4.94,4.94,0,0,1,51.37,179Z"></path><rect class="cls-16" x="60.35" y="179.7" width="10.19" height="0.36" transform="translate(-81 56.62) rotate(-29.92)"></rect><path class="cls-1" d="M70.67,176.73a2,2,0,0,1-.89,1.54c-.49.28-.89,0-.89-.52a2,2,0,0,1,.89-1.53C70.27,175.93,70.67,176.16,70.67,176.73Z"></path><path class="cls-1" d="M73.53,175.08a2,2,0,0,1-.89,1.54c-.49.28-.89,0-.89-.52a2,2,0,0,1,.89-1.53C73.13,174.28,73.53,174.51,73.53,175.08Z"></path><path class="cls-1" d="M76.39,173.43A2,2,0,0,1,75.5,175c-.49.28-.89.05-.89-.52a2,2,0,0,1,.89-1.53C76,172.63,76.39,172.86,76.39,173.43Z"></path><path class="cls-15" d="M78.76,162.52h0v-7.59h-17l-5.88-3.4a5.84,5.84,0,0,0-5.26.22l-5.49,3.17h-17v7.8a1.53,1.53,0,0,0,.9,1.41l22,12.7a5.84,5.84,0,0,0,5.26-.22l21.24-12.26C78.38,163.81,78.81,163.14,78.76,162.52Z"></path><path class="cls-15" d="M53.42,151a6.1,6.1,0,0,0-2.82.74l-5.49,3.17h-17v7.8a1.53,1.53,0,0,0,.9,1.41l22,12.7a4.63,4.63,0,0,0,2.44.52Z"></path><path class="cls-14" d="M30,154.9H28.08v7.8a1.53,1.53,0,0,0,.9,1.41l1,.6Z"></path><path class="cls-14" d="M51.32,177a6,6,0,0,0,4.2,0v-8.86h-4.2Z"></path><path class="cls-1" d="M51,169l-22-12.7c-1.34-.78-1.18-2.14.38-3L50.6,141a5.84,5.84,0,0,1,5.26-.22l22,12.7c1.34.78,1.18,2.14-.38,3L56.24,168.82A5.84,5.84,0,0,1,51,169Z"></path><path class="cls-16" d="M77.48,155.06,56.24,167.32a5.84,5.84,0,0,1-5.26.22L29,154.85a2.09,2.09,0,0,1-.67-.6,1.42,1.42,0,0,0,.67,2.09L51,169a5.84,5.84,0,0,0,5.26-.22l21.24-12.26c1.21-.7,1.58-1.68,1-2.44A2.88,2.88,0,0,1,77.48,155.06Z"></path><path class="cls-1" d="M70.67,164.52a2,2,0,0,1-.89,1.54c-.49.28-.89.05-.89-.52a2,2,0,0,1,.89-1.53C70.27,163.72,70.67,164,70.67,164.52Z"></path><path class="cls-1" d="M61.92,169.33a2,2,0,0,1-.89,1.54c-.49.28-.89,0-.89-.51a2,2,0,0,1,.89-1.54C61.52,168.53,61.92,168.76,61.92,169.33Z"></path><path class="cls-16" d="M61.92,181.91a2,2,0,0,1-.89,1.54c-.49.28-.89.05-.89-.51A2,2,0,0,1,61,181.4C61.52,181.12,61.92,181.35,61.92,181.91Z"></path><path class="cls-1" d="M73.53,162.87a2,2,0,0,1-.89,1.54c-.49.28-.89.05-.89-.52a2,2,0,0,1,.89-1.53C73.13,162.07,73.53,162.3,73.53,162.87Z"></path><path class="cls-1" d="M76.39,161.22a2,2,0,0,1-.89,1.54c-.49.28-.89.05-.89-.52a2,2,0,0,1,.89-1.53C76,160.42,76.39,160.65,76.39,161.22Z"></path><path class="cls-14" d="M52.28,161.16,42,155.22c-.64-.36-.56-1,.17-1.42l9.94-5.74a2.75,2.75,0,0,1,2.46-.1l10.29,5.94c.64.37.56,1-.17,1.42l-9.94,5.74A2.72,2.72,0,0,1,52.28,161.16Z"></path><path class="cls-1" d="M53.26,156.19l-1.42-.82c-.09-.05-.08-.14,0-.2l1.38-.79a.37.37,0,0,1,.34,0l1.42.82c.09.06.08.14,0,.2l-1.38.8A.41.41,0,0,1,53.26,156.19Z"></path><path class="cls-15" d="M42,155.22l0,0,.15-.1,9.94-5.74a2.72,2.72,0,0,1,2.46-.1l10.27,5.92c.58-.41.61-1,0-1.32L54.56,148a2.75,2.75,0,0,0-2.46.1l-9.94,5.74C41.43,154.22,41.35,154.86,42,155.22Z"></path><path class="cls-1" d="M50.12,170.84c0,.59-.42.83-.93.54a2.08,2.08,0,0,1-.94-1.63c0-.59.42-.83.94-.54A2.1,2.1,0,0,1,50.12,170.84Z"></path><path class="cls-14" d="M47.22,169.17c0,.6-.42.84-.94.54a2.08,2.08,0,0,1-.93-1.62c0-.6.42-.84.93-.54A2.06,2.06,0,0,1,47.22,169.17Z"></path><path class="cls-1" d="M50.12,174.34c0,.6-.42.84-.93.54a2.06,2.06,0,0,1-.94-1.62c0-.6.42-.84.94-.54A2.08,2.08,0,0,1,50.12,174.34Z"></path><path class="cls-1" d="M47.22,172.67c0,.6-.42.84-.94.54a2.06,2.06,0,0,1-.93-1.62c0-.59.42-.84.93-.54A2.08,2.08,0,0,1,47.22,172.67Z"></path><path class="cls-1" d="M50.12,182.88c0,.6-.42.84-.93.54a2.06,2.06,0,0,1-.94-1.62c0-.6.42-.84.94-.54A2.08,2.08,0,0,1,50.12,182.88Z"></path><path class="cls-1" d="M47.22,181.22c0,.59-.42.83-.94.54a2.1,2.1,0,0,1-.93-1.63c0-.59.42-.83.93-.54A2.08,2.08,0,0,1,47.22,181.22Z"></path><path class="cls-14" d="M50.12,186.39c0,.59-.42.83-.93.54a2.08,2.08,0,0,1-.94-1.63c0-.59.42-.83.94-.54A2.1,2.1,0,0,1,50.12,186.39Z"></path><path class="cls-1" d="M47.22,184.72c0,.6-.42.84-.94.54a2.08,2.08,0,0,1-.93-1.62c0-.6.42-.84.93-.54A2.06,2.06,0,0,1,47.22,184.72Z"></path><path class="cls-1" d="M50.12,194.94c0,.6-.42.84-.93.54a2.06,2.06,0,0,1-.94-1.62c0-.6.42-.84.94-.54A2.08,2.08,0,0,1,50.12,194.94Z"></path><path class="cls-14" d="M47.22,193.28c0,.59-.42.83-.94.54a2.09,2.09,0,0,1-.93-1.62c0-.6.42-.84.93-.55A2.08,2.08,0,0,1,47.22,193.28Z"></path><path class="cls-1" d="M50.12,198.45c0,.59-.42.83-.93.54a2.08,2.08,0,0,1-.94-1.63c0-.59.42-.83.94-.54A2.1,2.1,0,0,1,50.12,198.45Z"></path><path class="cls-14" d="M47.22,196.78c0,.6-.42.84-.94.54a2.08,2.08,0,0,1-.93-1.62c0-.6.42-.84.93-.54A2.06,2.06,0,0,1,47.22,196.78Z"></path><path class="cls-14" d="M50.12,207.12c0,.6-.42.84-.93.54a2.06,2.06,0,0,1-.94-1.62c0-.6.42-.84.94-.54A2.08,2.08,0,0,1,50.12,207.12Z"></path><path class="cls-1" d="M47.22,205.45c0,.6-.42.84-.94.54a2.06,2.06,0,0,1-.93-1.62c0-.59.42-.84.93-.54A2.08,2.08,0,0,1,47.22,205.45Z"></path><path class="cls-1" d="M50.12,210.62c0,.6-.42.84-.93.54a2.06,2.06,0,0,1-.94-1.62c0-.59.42-.84.94-.54A2.09,2.09,0,0,1,50.12,210.62Z"></path><path class="cls-14" d="M47.22,209c0,.59-.42.84-.94.54a2.09,2.09,0,0,1-.93-1.62c0-.6.42-.84.93-.54A2.06,2.06,0,0,1,47.22,209Z"></path><path class="cls-14" d="M50.12,219.18c0,.6-.42.84-.93.54a2.06,2.06,0,0,1-.94-1.62c0-.6.42-.84.94-.54A2.08,2.08,0,0,1,50.12,219.18Z"></path><path class="cls-1" d="M47.22,217.51c0,.6-.42.84-.94.54a2.06,2.06,0,0,1-.93-1.62c0-.59.42-.84.93-.54A2.08,2.08,0,0,1,47.22,217.51Z"></path><path class="cls-14" d="M50.12,222.68c0,.6-.42.84-.93.54a2.06,2.06,0,0,1-.94-1.62c0-.59.42-.84.94-.54A2.09,2.09,0,0,1,50.12,222.68Z"></path><path class="cls-1" d="M47.22,221c0,.59-.42.84-.94.54a2.09,2.09,0,0,1-.93-1.62c0-.6.42-.84.93-.54A2,2,0,0,1,47.22,221Z"></path><path class="cls-1" d="M50.12,231.39c0,.6-.42.84-.93.54a2.06,2.06,0,0,1-.94-1.62c0-.6.42-.84.94-.54A2.08,2.08,0,0,1,50.12,231.39Z"></path><path class="cls-14" d="M47.22,229.72c0,.6-.42.84-.94.54a2.06,2.06,0,0,1-.93-1.62c0-.59.42-.84.93-.54A2.08,2.08,0,0,1,47.22,229.72Z"></path><path class="cls-1" d="M50.12,234.89c0,.6-.42.84-.93.54a2,2,0,0,1-.94-1.62c0-.59.42-.84.94-.54A2.09,2.09,0,0,1,50.12,234.89Z"></path><path class="cls-1" d="M47.22,233.23c0,.59-.42.84-.94.54a2.09,2.09,0,0,1-.93-1.62c0-.6.42-.84.93-.54A2.06,2.06,0,0,1,47.22,233.23Z"></path><path class="cls-21" d="M78.72,126.09,59.58,115a1,1,0,0,0-1-.08h0L56.74,116l1.3.47v13.94a3.67,3.67,0,0,0,1.54,2.94l18.29,10.56v1.64l1.88-1.08h0a1.39,1.39,0,0,0,.52-1.23V129A3.67,3.67,0,0,0,78.72,126.09Z"></path><path class="cls-9" d="M76.83,145.51l-19.14-11a3.69,3.69,0,0,1-1.54-2.94V117.29c0-1.13.69-1.65,1.54-1.16l19.14,11.05a3.67,3.67,0,0,1,1.54,2.94v14.23C78.37,145.48,77.68,146,76.83,145.51Z"></path><path class="cls-16" d="M64.13,129.56c0,.82-.58,1.16-1.3.74a2.85,2.85,0,0,1-1.29-2.23c0-.83.58-1.16,1.29-.75A2.85,2.85,0,0,1,64.13,129.56Z"></path><path class="cls-16" d="M68,131.82c0,.82-.58,1.15-1.29.74a2.84,2.84,0,0,1-1.3-2.23c0-.83.58-1.16,1.3-.75A2.85,2.85,0,0,1,68,131.82Z"></path><path class="cls-16" d="M72,134.08c0,.82-.58,1.15-1.29.74a2.83,2.83,0,0,1-1.29-2.24c0-.82.57-1.15,1.29-.74A2.85,2.85,0,0,1,72,134.08Z"></path><path class="cls-14" d="M67.83,108.19l-19.14-11a1,1,0,0,0-1-.08v0l-1.86,1.08,1.31.47v13.94a3.69,3.69,0,0,0,1.54,2.94L67,126v1.64l1.88-1.08h0a1.36,1.36,0,0,0,.52-1.22V111.14A3.71,3.71,0,0,0,67.83,108.19Z"></path><path class="cls-1" d="M65.94,127.62,46.8,116.57a3.69,3.69,0,0,1-1.54-2.94V99.4c0-1.14.69-1.66,1.54-1.17l19.14,11a3.69,3.69,0,0,1,1.54,3v14.23C67.48,127.59,66.79,128.11,65.94,127.62Z"></path><path class="cls-16" d="M53.23,111.67c0,.82-.57,1.15-1.29.74a2.85,2.85,0,0,1-1.29-2.23c0-.83.58-1.16,1.29-.75A2.83,2.83,0,0,1,53.23,111.67Z"></path><path class="cls-16" d="M57.15,113.93c0,.82-.58,1.15-1.3.74a2.85,2.85,0,0,1-1.29-2.24c0-.82.58-1.15,1.29-.74A2.84,2.84,0,0,1,57.15,113.93Z"></path><path class="cls-16" d="M61.06,116.18c0,.83-.58,1.16-1.29.75a2.83,2.83,0,0,1-1.29-2.24c0-.82.57-1.15,1.29-.74A2.85,2.85,0,0,1,61.06,116.18Z"></path><rect class="cls-14" x="235.58" y="259.02" width="4.82" height="10.4" transform="translate(593.16 246.79) rotate(129.2)"></rect><path class="cls-14" d="M241.7,269.46a3.79,3.79,0,0,0,2.16-2.65c.17-1.07-.51-1.63-1.53-1.24a3.78,3.78,0,0,0-2.15,2.64C240,269.29,240.69,269.84,241.7,269.46Z"></path><rect class="cls-14" x="227.34" y="253.41" width="7.81" height="10.63" transform="translate(577.9 243.04) rotate(129.2)"></rect><path class="cls-15" d="M236.8,260.15l2.73,2.23a6.21,6.21,0,0,1-3,3.73l-2.73-2.22A6.23,6.23,0,0,1,236.8,260.15Z"></path><path class="cls-14" d="M234.85,265.24a6.11,6.11,0,0,0,3.49-4.29c.29-1.74-.82-2.64-2.47-2a6.1,6.1,0,0,0-3.49,4.28C232.1,265,233.21,265.86,234.85,265.24Z"></path><path class="cls-14" d="M226.61,258.52a6.15,6.15,0,0,0,3.5-4.29c.28-1.73-.83-2.64-2.48-2a6.1,6.1,0,0,0-3.49,4.28C223.86,258.24,225,259.14,226.61,258.52Z"></path><path class="cls-1" d="M226.84,257.15a3.47,3.47,0,0,0,2-2.42c.16-1-.47-1.5-1.4-1.14a3.43,3.43,0,0,0-2,2.42C225.28,257,225.9,257.5,226.84,257.15Z"></path><path class="cls-1" d="M241.73,266.4c.39.32.78.17.86-.33a1.75,1.75,0,0,0-.57-1.49c-.39-.33-.78-.18-.86.32A1.76,1.76,0,0,0,241.73,266.4Z"></path></g></g></svg> 