<?xml version="1.0" encoding="UTF-8"?> <svg xmlns="http://www.w3.org/2000/svg" viewBox="0 0 243.4 243.4"><defs><style>.cls-1{fill:#ef5555;}</style></defs><g id="Layer_2" data-name="Layer 2"><g id="Layer_1-2" data-name="Layer 1"><g id="Layer_2-2" data-name="Layer 2"><g id="Layer_1-2-2" data-name="Layer 1-2"><path class="cls-1" d="M121.7,99.1a22.6,22.6,0,1,1-22.6,22.6h0A22.6,22.6,0,0,1,121.7,99.1Z"></path><path class="cls-1" d="M121.7,53.91A67.79,67.79,0,1,1,53.91,121.7h0A67.79,67.79,0,0,1,121.7,53.91ZM172,121.7A50.35,50.35,0,1,0,121.6,172h.1A50.34,50.34,0,0,0,172,121.7Z"></path><path class="cls-1" d="M121.7,0A121.7,121.7,0,1,1,0,121.7H0A121.7,121.7,0,0,1,121.7,0Zm88.79,121.7a88.8,88.8,0,1,0-88.81,88.79h0a88.8,88.8,0,0,0,88.79-88.79Z"></path></g></g></g></g></svg> 